<mxfile host="65bd71144e">
    <diagram id="B9XtmiDqYJHPnyc0SV0A" name="Page-1">
        <mxGraphModel dx="987" dy="527" grid="1" gridSize="10" guides="1" tooltips="1" connect="1" arrows="1" fold="1" page="1" pageScale="1" pageWidth="850" pageHeight="1100" math="0" shadow="0">
            <root>
                <mxCell id="0"/>
                <mxCell id="1" parent="0"/>
                <mxCell id="2" value="&lt;font color=&quot;#000000&quot;&gt;Dropdown&lt;/font&gt;" style="rounded=0;whiteSpace=wrap;html=1;fontFamily=Helvetica;fontSize=12;fontColor=#FFFFFF;fillColor=#99CCFF;" parent="1" vertex="1">
                    <mxGeometry x="40" y="40" width="80" height="30" as="geometry"/>
                </mxCell>
                <mxCell id="3" value="&lt;font color=&quot;#000000&quot;&gt;Input&lt;/font&gt;" style="rounded=0;whiteSpace=wrap;html=1;fontFamily=Helvetica;fontSize=12;fontColor=#FFFFFF;fillColor=#99CCFF;" parent="1" vertex="1">
                    <mxGeometry x="40" y="80" width="80" height="30" as="geometry"/>
                </mxCell>
                <mxCell id="4" value="&lt;font color=&quot;#000000&quot;&gt;Checkbox&lt;/font&gt;" style="rounded=0;whiteSpace=wrap;html=1;fontFamily=Helvetica;fontSize=12;fontColor=#FFFFFF;fillColor=#99CCFF;" parent="1" vertex="1">
                    <mxGeometry x="40" y="120" width="80" height="30" as="geometry"/>
                </mxCell>
                <mxCell id="5" value="&lt;font color=&quot;#000000&quot;&gt;RadioButton&lt;/font&gt;" style="rounded=0;whiteSpace=wrap;html=1;fontFamily=Helvetica;fontSize=12;fontColor=#FFFFFF;fillColor=#99CCFF;" parent="1" vertex="1">
                    <mxGeometry x="40" y="160" width="80" height="30" as="geometry"/>
                </mxCell>
                <mxCell id="6" value="&lt;font color=&quot;#000000&quot;&gt;Slider&lt;/font&gt;" style="rounded=0;whiteSpace=wrap;html=1;fontFamily=Helvetica;fontSize=12;fontColor=#FFFFFF;fillColor=#99CCFF;" parent="1" vertex="1">
                    <mxGeometry x="40" y="200" width="80" height="30" as="geometry"/>
                </mxCell>
                <mxCell id="8" value="&lt;font color=&quot;#000000&quot;&gt;Same props names for all form control components:value, onChange&lt;br&gt;Easy to remember&lt;br&gt;&lt;/font&gt;" style="rounded=0;whiteSpace=wrap;html=1;fontFamily=Helvetica;fontSize=12;fontColor=#FFFFFF;fillColor=#FFFF99;" parent="1" vertex="1">
                    <mxGeometry x="140" y="90" width="400" height="110" as="geometry"/>
                </mxCell>
                <mxCell id="9" value="" style="group" parent="1" vertex="1" connectable="0">
                    <mxGeometry x="40" y="400" width="370" height="30" as="geometry"/>
                </mxCell>
                <mxCell id="10" value="Create a new component that shows a handful of jsx elements" style="rounded=0;whiteSpace=wrap;html=1;fontFamily=Helvetica;fontSize=12;fontColor=#000000;fillColor=#FFFFFF;" parent="9" vertex="1">
                    <mxGeometry x="30" width="340" height="30" as="geometry"/>
                </mxCell>
                <mxCell id="11" value="1" style="rounded=0;whiteSpace=wrap;html=1;fontFamily=Helvetica;fontSize=12;fontColor=#000000;fillColor=#99CCFF;" parent="9" vertex="1">
                    <mxGeometry width="30" height="30" as="geometry"/>
                </mxCell>
                <mxCell id="12" value="&lt;font style=&quot;font-size: 20px;&quot;&gt;Reusable&amp;nbsp; Components&lt;/font&gt;" style="text;html=1;strokeColor=none;fillColor=none;align=center;verticalAlign=middle;whiteSpace=wrap;rounded=0;" parent="1" vertex="1">
                    <mxGeometry x="50" y="360" width="340" height="30" as="geometry"/>
                </mxCell>
                <mxCell id="13" value="" style="group" parent="1" vertex="1" connectable="0">
                    <mxGeometry x="40" y="440" width="370" height="30" as="geometry"/>
                </mxCell>
                <mxCell id="14" value="Make sure the component accepts + uses the 'children' prop" style="rounded=0;whiteSpace=wrap;html=1;fontFamily=Helvetica;fontSize=12;fontColor=#000000;fillColor=#FFFFFF;" parent="13" vertex="1">
                    <mxGeometry x="30" width="340" height="30" as="geometry"/>
                </mxCell>
                <mxCell id="16" value="" style="edgeStyle=none;html=1;fontSize=20;" parent="13" source="15" target="14" edge="1">
                    <mxGeometry relative="1" as="geometry"/>
                </mxCell>
                <mxCell id="15" value="2" style="rounded=0;whiteSpace=wrap;html=1;fontFamily=Helvetica;fontSize=12;fontColor=#000000;fillColor=#99CCFF;" parent="13" vertex="1">
                    <mxGeometry width="30" height="30" as="geometry"/>
                </mxCell>
                <mxCell id="17" value="" style="group" parent="1" vertex="1" connectable="0">
                    <mxGeometry x="40" y="480" width="370" height="30" as="geometry"/>
                </mxCell>
                <mxCell id="18" value="Allow extra classNames to be passed in + merge them" style="rounded=0;whiteSpace=wrap;html=1;fontFamily=Helvetica;fontSize=12;fontColor=#000000;fillColor=#FFFFFF;" parent="17" vertex="1">
                    <mxGeometry x="30" width="340" height="30" as="geometry"/>
                </mxCell>
                <mxCell id="19" value="" style="edgeStyle=none;html=1;fontSize=20;" parent="17" source="20" target="18" edge="1">
                    <mxGeometry relative="1" as="geometry"/>
                </mxCell>
                <mxCell id="20" value="3" style="rounded=0;whiteSpace=wrap;html=1;fontFamily=Helvetica;fontSize=12;fontColor=#000000;fillColor=#99CCFF;" parent="17" vertex="1">
                    <mxGeometry width="30" height="30" as="geometry"/>
                </mxCell>
                <mxCell id="21" value="" style="group" parent="1" vertex="1" connectable="0">
                    <mxGeometry x="40" y="520" width="370" height="30" as="geometry"/>
                </mxCell>
                <mxCell id="22" value="Take extra props, pass them through to root element" style="rounded=0;whiteSpace=wrap;html=1;fontFamily=Helvetica;fontSize=12;fontColor=#000000;fillColor=#FFFFFF;" parent="21" vertex="1">
                    <mxGeometry x="30" width="340" height="30" as="geometry"/>
                </mxCell>
                <mxCell id="23" value="" style="edgeStyle=none;html=1;fontSize=20;" parent="21" source="24" target="22" edge="1">
                    <mxGeometry relative="1" as="geometry"/>
                </mxCell>
                <mxCell id="24" value="3" style="rounded=0;whiteSpace=wrap;html=1;fontFamily=Helvetica;fontSize=12;fontColor=#000000;fillColor=#99CCFF;" parent="21" vertex="1">
                    <mxGeometry width="30" height="30" as="geometry"/>
                </mxCell>
                <mxCell id="27" value="" style="edgeStyle=none;html=1;fontSize=20;" parent="1" source="25" target="26" edge="1">
                    <mxGeometry relative="1" as="geometry"/>
                </mxCell>
                <mxCell id="25" value="&lt;font color=&quot;#000000&quot;&gt;&amp;lt;Panel className=&quot;mr-3&quot; onClick={()=&amp;gt;{}}/&amp;gt;&lt;/font&gt;" style="rounded=0;whiteSpace=wrap;html=1;fontFamily=Helvetica;fontSize=12;fontColor=#FFFFFF;fillColor=#99CCFF;" parent="1" vertex="1">
                    <mxGeometry x="440" y="380" width="360" height="30" as="geometry"/>
                </mxCell>
                <mxCell id="26" value="&lt;font color=&quot;#000000&quot;&gt;push props to reusable components&lt;br&gt;&amp;lt;div&amp;gt;&amp;lt;/div&amp;gt;&lt;/font&gt;" style="rounded=0;whiteSpace=wrap;html=1;fontFamily=Helvetica;fontSize=12;fontColor=#FFFFFF;fillColor=#99CCFF;" parent="1" vertex="1">
                    <mxGeometry x="440" y="520" width="360" height="30" as="geometry"/>
                </mxCell>
                <mxCell id="28" value="&lt;font color=&quot;#000000&quot;&gt;props: className, onClick&lt;/font&gt;" style="rounded=0;whiteSpace=wrap;html=1;fontFamily=Helvetica;fontSize=12;fontColor=#FFFFFF;fillColor=#99CCFF;" parent="1" vertex="1">
                    <mxGeometry x="620" y="450" width="180" height="30" as="geometry"/>
                </mxCell>
                <mxCell id="29" value="&lt;font color=&quot;#000000&quot;&gt;performence.now() : time since load page&lt;br&gt;ex: window.timeOne = perfomence.now()&lt;br&gt;&lt;/font&gt;" style="rounded=0;whiteSpace=wrap;html=1;fontFamily=Helvetica;fontSize=12;fontColor=#FFFFFF;fillColor=#99CCFF;" parent="1" vertex="1">
                    <mxGeometry x="41" y="640" width="359" height="80" as="geometry"/>
                </mxCell>
                <mxCell id="33" value="" style="edgeStyle=none;html=1;" parent="1" source="30" target="31" edge="1">
                    <mxGeometry relative="1" as="geometry"/>
                </mxCell>
                <mxCell id="30" value="&lt;font color=&quot;#000000&quot;&gt;Capture Phase&lt;/font&gt;" style="rounded=0;whiteSpace=wrap;html=1;fontFamily=Helvetica;fontSize=12;fontColor=#FFFFFF;fillColor=#99CCFF;" parent="1" vertex="1">
                    <mxGeometry x="41" y="840" width="220" height="50" as="geometry"/>
                </mxCell>
                <mxCell id="34" value="" style="edgeStyle=none;html=1;" parent="1" source="31" target="32" edge="1">
                    <mxGeometry relative="1" as="geometry"/>
                </mxCell>
                <mxCell id="31" value="&lt;font color=&quot;#000000&quot;&gt;Target Phase&lt;/font&gt;" style="rounded=0;whiteSpace=wrap;html=1;fontFamily=Helvetica;fontSize=12;fontColor=#FFFFFF;fillColor=#99CCFF;" parent="1" vertex="1">
                    <mxGeometry x="40" y="950" width="220" height="50" as="geometry"/>
                </mxCell>
                <mxCell id="32" value="&lt;font color=&quot;#000000&quot;&gt;Bubble Phase&lt;/font&gt;" style="rounded=0;whiteSpace=wrap;html=1;fontFamily=Helvetica;fontSize=12;fontColor=#FFFFFF;fillColor=#99CCFF;" parent="1" vertex="1">
                    <mxGeometry x="41" y="1060" width="220" height="50" as="geometry"/>
                </mxCell>
                <mxCell id="35" value="When an event occurs, browser wants to find event handlers to call" style="text;html=1;strokeColor=none;fillColor=none;align=center;verticalAlign=middle;whiteSpace=wrap;rounded=0;fontSize=16;" parent="1" vertex="1">
                    <mxGeometry x="350" y="860" width="180" height="70" as="geometry"/>
                </mxCell>
                <mxCell id="36" value="Order in which this search occurs is divided into three phases" style="text;html=1;strokeColor=none;fillColor=none;align=center;verticalAlign=middle;whiteSpace=wrap;rounded=0;fontSize=16;" parent="1" vertex="1">
                    <mxGeometry x="350" y="980" width="180" height="70" as="geometry"/>
                </mxCell>
                <mxCell id="38" value="&lt;font color=&quot;#000000&quot;&gt;Phase One - Capture&lt;br&gt;Go to most parent of clicked element, see if it has handler. Go to second most parent...&lt;br&gt;&lt;/font&gt;" style="rounded=0;whiteSpace=wrap;html=1;fontFamily=Helvetica;fontSize=12;fontColor=#FFFFFF;fillColor=#99CCFF;" parent="1" vertex="1">
                    <mxGeometry x="640" y="850" width="250" height="90" as="geometry"/>
                </mxCell>
                <mxCell id="39" value="&lt;font color=&quot;#000000&quot;&gt;Phase Two - Target&lt;br&gt;Go to the click element, check to see if it has event handler&lt;br&gt;&lt;/font&gt;" style="rounded=0;whiteSpace=wrap;html=1;fontFamily=Helvetica;fontSize=12;fontColor=#FFFFFF;fillColor=#99CCFF;" parent="1" vertex="1">
                    <mxGeometry x="640" y="960" width="250" height="90" as="geometry"/>
                </mxCell>
                <mxCell id="40" value="&lt;font color=&quot;#000000&quot;&gt;Phase three - Bubble&lt;br&gt;Go to parent of clicked element, see it has handler. then go to parent's parent,...etc&lt;br&gt;&lt;/font&gt;" style="rounded=0;whiteSpace=wrap;html=1;fontFamily=Helvetica;fontSize=12;fontColor=#FFFFFF;fillColor=#99CCFF;" parent="1" vertex="1">
                    <mxGeometry x="640" y="1070" width="250" height="90" as="geometry"/>
                </mxCell>
                <mxCell id="50" style="edgeStyle=none;html=1;entryX=0.5;entryY=0;entryDx=0;entryDy=0;fontSize=16;" parent="1" source="41" target="42" edge="1">
                    <mxGeometry relative="1" as="geometry"/>
                </mxCell>
                <mxCell id="41" value="&lt;font color=&quot;#000000&quot;&gt;body&lt;/font&gt;" style="rounded=0;whiteSpace=wrap;html=1;fontFamily=Helvetica;fontSize=12;fontColor=#FFFFFF;fillColor=#99CCFF;" parent="1" vertex="1">
                    <mxGeometry x="950" y="900" width="80" height="30" as="geometry"/>
                </mxCell>
                <mxCell id="52" style="edgeStyle=none;html=1;fontSize=16;" parent="1" source="42" target="43" edge="1">
                    <mxGeometry relative="1" as="geometry"/>
                </mxCell>
                <mxCell id="42" value="&lt;font color=&quot;#000000&quot;&gt;div&lt;/font&gt;" style="rounded=0;whiteSpace=wrap;html=1;fontFamily=Helvetica;fontSize=12;fontColor=#FFFFFF;fillColor=#99CCFF;" parent="1" vertex="1">
                    <mxGeometry x="950" y="950" width="80" height="30" as="geometry"/>
                </mxCell>
                <mxCell id="53" style="edgeStyle=none;html=1;fontSize=16;" parent="1" source="43" target="45" edge="1">
                    <mxGeometry relative="1" as="geometry"/>
                </mxCell>
                <mxCell id="43" value="&lt;font color=&quot;#000000&quot;&gt;button&lt;/font&gt;" style="rounded=0;whiteSpace=wrap;html=1;fontFamily=Helvetica;fontSize=12;fontColor=#ffffff;fillColor=#CC99FF;strokeColor=#3700CC;" parent="1" vertex="1">
                    <mxGeometry x="950" y="1000" width="80" height="30" as="geometry"/>
                </mxCell>
                <mxCell id="44" value="&lt;font color=&quot;#000000&quot;&gt;body&lt;/font&gt;" style="rounded=0;whiteSpace=wrap;html=1;fontFamily=Helvetica;fontSize=12;fontColor=#FFFFFF;fillColor=#99CCFF;" parent="1" vertex="1">
                    <mxGeometry x="950" y="1100" width="80" height="30" as="geometry"/>
                </mxCell>
                <mxCell id="54" value="" style="edgeStyle=none;html=1;fontSize=16;" parent="1" source="45" target="44" edge="1">
                    <mxGeometry relative="1" as="geometry"/>
                </mxCell>
                <mxCell id="45" value="&lt;font color=&quot;#000000&quot;&gt;div&lt;/font&gt;" style="rounded=0;whiteSpace=wrap;html=1;fontFamily=Helvetica;fontSize=12;fontColor=#FFFFFF;fillColor=#99CCFF;" parent="1" vertex="1">
                    <mxGeometry x="950" y="1050" width="80" height="30" as="geometry"/>
                </mxCell>
                <mxCell id="55" value="" style="shape=curlyBracket;whiteSpace=wrap;html=1;rounded=1;flipH=1;labelPosition=right;verticalLabelPosition=middle;align=left;verticalAlign=middle;fontSize=16;fillColor=#CC99FF;size=0.5;" parent="1" vertex="1">
                    <mxGeometry x="1040" y="900" width="20" height="80" as="geometry"/>
                </mxCell>
                <mxCell id="71" value="" style="edgeStyle=none;html=1;fontSize=16;" parent="1" source="56" target="61" edge="1">
                    <mxGeometry relative="1" as="geometry"/>
                </mxCell>
                <mxCell id="56" value="Capture&lt;br&gt;frequently disabled" style="text;html=1;strokeColor=none;fillColor=none;align=center;verticalAlign=middle;whiteSpace=wrap;rounded=0;fontSize=16;" parent="1" vertex="1">
                    <mxGeometry x="1060" y="920" width="160" height="30" as="geometry"/>
                </mxCell>
                <mxCell id="57" value="" style="shape=curlyBracket;whiteSpace=wrap;html=1;rounded=1;flipH=1;labelPosition=right;verticalLabelPosition=middle;align=left;verticalAlign=middle;fontSize=16;fillColor=#CC99FF;size=0.5;" parent="1" vertex="1">
                    <mxGeometry x="1040" y="995" width="20" height="45" as="geometry"/>
                </mxCell>
                <mxCell id="65" style="edgeStyle=none;html=1;entryX=0;entryY=0.5;entryDx=0;entryDy=0;fontSize=16;" parent="1" source="58" target="62" edge="1">
                    <mxGeometry relative="1" as="geometry"/>
                </mxCell>
                <mxCell id="68" style="edgeStyle=none;html=1;entryX=0;entryY=0.5;entryDx=0;entryDy=0;fontSize=16;" parent="1" source="58" target="64" edge="1">
                    <mxGeometry relative="1" as="geometry"/>
                </mxCell>
                <mxCell id="70" style="edgeStyle=none;html=1;entryX=0;entryY=0.5;entryDx=0;entryDy=0;fontSize=16;" parent="1" source="58" target="61" edge="1">
                    <mxGeometry relative="1" as="geometry"/>
                </mxCell>
                <mxCell id="58" value="Target" style="text;html=1;strokeColor=none;fillColor=none;align=center;verticalAlign=middle;whiteSpace=wrap;rounded=0;fontSize=16;" parent="1" vertex="1">
                    <mxGeometry x="1020" y="1002.5" width="160" height="30" as="geometry"/>
                </mxCell>
                <mxCell id="59" value="" style="shape=curlyBracket;whiteSpace=wrap;html=1;rounded=1;flipH=1;labelPosition=right;verticalLabelPosition=middle;align=left;verticalAlign=middle;fontSize=16;fillColor=#CC99FF;size=0.5;" parent="1" vertex="1">
                    <mxGeometry x="1040" y="1050" width="20" height="80" as="geometry"/>
                </mxCell>
                <mxCell id="67" style="edgeStyle=none;html=1;entryX=0;entryY=0.5;entryDx=0;entryDy=0;fontSize=16;" parent="1" source="60" target="62" edge="1">
                    <mxGeometry relative="1" as="geometry"/>
                </mxCell>
                <mxCell id="69" style="edgeStyle=none;html=1;entryX=0;entryY=0.5;entryDx=0;entryDy=0;fontSize=16;" parent="1" source="60" target="64" edge="1">
                    <mxGeometry relative="1" as="geometry"/>
                </mxCell>
                <mxCell id="60" value="Bubble" style="text;html=1;strokeColor=none;fillColor=none;align=center;verticalAlign=middle;whiteSpace=wrap;rounded=0;fontSize=16;" parent="1" vertex="1">
                    <mxGeometry x="1020" y="1075" width="160" height="30" as="geometry"/>
                </mxCell>
                <mxCell id="61" value="" style="shape=image;verticalLabelPosition=bottom;labelBackgroundColor=default;verticalAlign=top;aspect=fixed;imageAspect=0;image=data:image/png,iVBORw0KGgoAAAANSUhEUgAAAfgAAABBCAYAAAA9mrZ2AAABXmlDQ1BJQ0MgUHJvZmlsZQAAKJF1kE0rRHEUh59hNMUUC2kWypTJaoiLUrPylmgW0zBl7O7cGeNl3Pl350p2FuxHZmMnNj4BGwsrW0pZSBILH0Amha5zDcZLzun0e/p1zul0oMavK5XzAkumbcXHhoLTyZmg755a2mihnYBuFNRgLBaVFj71Z5Qv8Lh63unuOolEJhbuNp8Wb0tt6YZk6G//j6hPZwqG6IuUZijLBk+3cGzFVi6vCTdbcpRwyeVshfddTlX46L1nKj4sfCbcZMzpaeEb4XDqm5/9xku5ZePjBvd6f8ZMTIq2SLUywihRySAJNPrpYUA8/pnpe58ZJo9iFYt5ssxhy/SgOIocGeFxTAy6CAtrdEv1ur/+/cOql9+FgUeoLVa91DYcbkDgsuqFdqBxHQ5OlW7pX5/1lL2F2V6twv4hqLt2nIcO8G3Ba9Fxnncd53VP9l/BsfkGgwdjz0rAZS8AAABiZVhJZk1NACoAAAAIAAIBEgADAAAAAQABAACHaQAEAAAAAQAAACYAAAAAAAOShgAHAAAAEgAAAFCgAgAEAAAAAQAAAfigAwAEAAAAAQAAAEEAAAAAQVNDSUkAAABTY3JlZW5zaG906GmokwAAAjxpVFh0WE1MOmNvbS5hZG9iZS54bXAAAAAAADx4OnhtcG1ldGEgeG1sbnM6eD0iYWRvYmU6bnM6bWV0YS8iIHg6eG1wdGs9IlhNUCBDb3JlIDYuMC4wIj4KICAgPHJkZjpSREYgeG1sbnM6cmRmPSJodHRwOi8vd3d3LnczLm9yZy8xOTk5LzAyLzIyLXJkZi1zeW50YXgtbnMjIj4KICAgICAgPHJkZjpEZXNjcmlwdGlvbiByZGY6YWJvdXQ9IiIKICAgICAgICAgICAgeG1sbnM6ZXhpZj0iaHR0cDovL25zLmFkb2JlLmNvbS9leGlmLzEuMC8iCiAgICAgICAgICAgIHhtbG5zOnRpZmY9Imh0dHA6Ly9ucy5hZG9iZS5jb20vdGlmZi8xLjAvIj4KICAgICAgICAgPGV4aWY6UGl4ZWxZRGltZW5zaW9uPjY1PC9leGlmOlBpeGVsWURpbWVuc2lvbj4KICAgICAgICAgPGV4aWY6VXNlckNvbW1lbnQ+U2NyZWVuc2hvdDwvZXhpZjpVc2VyQ29tbWVudD4KICAgICAgICAgPGV4aWY6UGl4ZWxYRGltZW5zaW9uPjUwNDwvZXhpZjpQaXhlbFhEaW1lbnNpb24+CiAgICAgICAgIDx0aWZmOk9yaWVudGF0aW9uPjE8L3RpZmY6T3JpZW50YXRpb24+CiAgICAgIDwvcmRmOkRlc2NyaXB0aW9uPgogICA8L3JkZjpSREY+CjwveDp4bXBtZXRhPgqyArXCAAAejklEQVR4Ae2dCXxMV/vHn+ybJBJZZLXEWmKntmprD12oUqVabSlvWy361quvLnir3lar7au0aFG11FKqKKVaVWLfiVhCSERWEdkTif/5ncm9mZlMJjNhTOL/PB8zc+/Z7/fenOec5zznsgkODr5NlZSIiAiKjIykjIyMSpbA2ZgAE2ACTIAJMAFLELC1RKFcJhNgAkyACTABJmBdAqzgrcufa2cCTIAJMAEmYBECrOAtgpULZQJMgAkwASZgXQKs4K3Ln2tnAkyACTABJmARAqzgLYKVC2UCTIAJMAEmYF0CrOCty59rZwJMgAkwASZgEQKs4C2ClQtlAkyACTABJmBdAqzgrcufa2cCTIAJMAEmYBECrOAtgpULZQJMgAkwASZgXQKs4K3Ln2tnAkyACTABJmARAqzgLYKVC2UCTIAJMAEmYF0CrOCty59rZwJMgAkwASZgEQKs4C2ClQtlAkyACTABJmBdAqzgrcufa2cCTIAJMAEmYBECrOAtgpULZQJMgAkwASZgXQKs4K3Ln2tnAkyACTABJmARAqzgLYKVC2UCTIAJMAEmYF0CrOCty59rZwJMgAkwASZgEQKs4C2ClQtlAkyACTABJmBdAqzgrcufa2cCTIAJMAEmYBECrOAtgpULZQJMgAkwASZgXQKs4K3Ln2tnAkyACTABJmARAqzgLYKVC2UCTIAJMAEmYF0CrOCty59rZwJMgAkwASZgEQKs4C2ClQtlAkyACTABJmBdAqzgrcufa2cCTIAJMAEmYBECVVbB2zs6kU/dxmTn4GiRC///XKinpyvVqeNnFAHiPTxcjaa5XyL9/GqSk5PD/XI5FV6HrQ3RwaXXaPrYGzppneztyMXBXg3DMcLMlRBvD6rnU1N+fN2NP0NugruLY2md5tTlU8OVPFycys1ib2sryxaXK8UR11fJusqtRES4eHrLvspYGkvFefoHk4dfkFq8d0gYBYd3kJ+AJq3VcD6omMD2uUn03XtpFSesRikq95d1Dy6wzYAX6eHR/6ZVbw+lK8ci70GN1qmiafcBlHcznS4d+uueNWDq1OHUrFko9e79nsE6MQD49ts3aMuWwzR79nqZBueGlODGjQdo9eq/DZZjycAWLepRYKA3bd16uEw1r77anzp1akIvvvgF3bpVVCZeOyAkxJcWLXqTfvopkr755lftKJOOHYQSfOyx9nTkSAxdvpxsUh5rJxo/7CbVrlVEq7e76TRlzvDe5OXmTIPnrSc7MQpYOvpxSrqZTa8v26aTrqKTT4Y8SlCukPNJ6fTvn3bKY0Nf3zzfly6lZtD763cZijYaNm9Ebzoel0wzNhnuH17r0Ya6NgyhmZv30pHLiTRneC/ydnOR12e0YDMje73xETXu1o9m9Qo1M+edJx+5cDvl3Eijhc93lYUNnPYtQclDiotu0Wd968vjqvzlUa8dFeVnUXZCtFWbeTDKkUb0y6YQ/1sUl1RlVaNZjKrsDN7GRhl3m3U91S5xnwn/pR6vT7+n7a4YbVn2oaG+5OvrSfZiFqT/uaeNL6ns5Zd70cSJAwxW3bRpCNWu7UW2mKpWIHl5+ZSenkVXrlROObu7uxAGFAMGdKqgpqoTPeapTNmBnYqxjNVixIKNNHzBL5RbeKvCi76YcoNiktMrTHc3EthQxc/D3ajHmmUsfqUXfflEU0o6f8qazTCr7jqP/ZOCeowxK48lEs9c4km3bxPNevPePI+WuAb9MqvUMMXByYVCWnUy+nC6etaioObtKDkmijIS4/SvRz33a9CMatYOpatRhyn7emnnjTqKigqp+FZp5+Po4kaFebni5haTcw1POfINDn+Q4k8doNtFRRTQtLVBK4LalgunKSMpXq0bByjnVkEeFYl66rTuQgmiHQW52WoaJzd3srER4yuhbW3t7GV6RBYVFlBhfq6azpQDX18PatgwiG7ezKGoqDgqLi4uk83LqwY1bhxMR4/GlIlDAAZU4eF1KTs7j1JTbxpMk5BwnV566QuDcW5i5ofZcn5+oU58jRouMqxQq7P39HSj5s1D6cKFREoSMzxtQfqCgkJRVjG1bl1fXM8Vys0tUJO4uDiSnZ2d/CAQ6SG3xV8m2m6OYKCSnp5Nw4bNEs9EWWZKWQ0aBJCPjyedPRsvBwMIBy9cMxQ8xNnZQW1LXl5BGcsBLAUhIT50/PglnXbaipmuq6sT5eTkyzIeeCCUDh06L8vU/zLGDWlRDjiAl7+/F4WF1aZjxy7KspWyhvfNJlfn2zR9obsSVKlfO9HuuoKJvRhEYQZeoGUpuYXnT/xDW8oTW8FP/KPpv+wW6cpLRcKSUH49+rlQJpYUCsS9LDLwN6Cf3hLnMJe7efvRteijZYp39w0g/4bh0mJ3NeoI3S4utS7Z2NqRk2sNys/JIgdnFwp6oG25Vr1adRpSjVr+dOVoWcsF+rUC8SkWfZwxQd+Dfg11xZ3Yp9MfIp+tvT05OrtRfnamLKZuu26iH00R/e5pY8WaFWfr6CzSi4cAz4K4fltHzd+SaLxoT+nfvK2DWIYRDwnCHNy8yck7kHISz1NxYb7Mb2vvIOJwvZoHCddmI/pU7TLQMFt7R3Lxb0C3cjIoP/0qgnQkM9uWDkU5UecW+eTocJsKCssOCB0dHcUEx178fQvOBaVt1CmoCp1UGQXf5smR1OO1afJmg092eqoOJjwAQz9bTcHN26vhUPA/vP445WZcV8Na9BtGvcZ9KB9QJfD45hW07YvJ8nT8prN06cCftHbKC/K8ee+nKeLt2bRp5hsUf3I/jV2xXz5MeOiKxENzW3QU8AfAw/310PbiOdMMAobOXkO+9ZooVVDKpWhaJtpyqwAPHdG49ScpPSGWagaEiqJsZb6TW1fRb7P/pcZLBS/OPGuHyPSIwMh76av9ZBpTvpYunUgBAd5qUnSq3323nVat2qWGvf/+s/TQQ83kuUYRatqoJGjUKIg+/3w0OZasT6alaf6olXhTfr//fqJUUI89Ju5hiWDAMHv2KNq8+SB98cUGqQBxXq+ev5KELl1Kotdf/1r8sWgGXOvXT6GEhDR5TVCiaC/M8LNn/yzzzJ//us71Ij0E+fv3nyqPTfmqW9efFi4cpyY1ZKIfOLATjRrVR+WCxCtX/iVM+tupZct6NGvWS2r+nj1bET6Q5ct30pIlv8tjsP344xfFtaMz08iWLYfU6+nWrRlNmfKMGOxcIwwkIBgkffXVJnX5AYOYirgh38qVkygrK1cOLgIDayFIHkdEfCCP8dWlpebe7zhY2h410sSD4Z2a0ZOtGornWtMB4h5N/2UPnbqaYmIJJM3/yvr+mWtpBk305tTjLJZKZg3pTv7Cb8Tctpjc6AoSPjdnAynr3ugvVk0aSmmXNYO10Ut3y75ALUIw2/Xdf2n/qq9lEEz8j0+ZS8lisoDJCQQD/R1fvU/oNyCOYgAwcsE2wro7BH2NrRjsmist+w+jnugjhRKEwJS/9dN/0unf16lFoT9+dKyoe8uP1LzvENmHIfLIhiWyTWrCOzgIH7dKKnYU4eJXn1q8uUaWlhl7lGLWlC4fPvDKIqmUi4sKyFUoaAiU94nPnyL3uq0obPB/6NLPH1LG+X0yLrjP61QrvDcdm/WYPMdX4CMvk1/7gep5YXY6nV/+TyrISFLDcHA42pHaN8un9g8U0J7jZf07PvroI2rUqJEYNOfQ0KFDdfJWxRMxhbS+YDbb/bWpUqHunP8hnfxtNbnV1HRQSuu6vjBRKncozY0zXhPK+IBUjP0nf6kkkY4ufcbPlMr06C9L6fuxEXRwzXxydHFV0+gfYOCgL7AOIL+dGBlmXLsiy3Dz9iWMYiFPfbhEKvcLkdtozeTn6PyerfK836TPdYryCqxL53dvlYOHguwsahHxrHTIQaKlwqy7bNwT8o80KzVRHuN83fulSkOnsHJOkpJuCIW+jUaPnkMffbSaMjNzhVLqLczpHjJH164PSOV+/XoWzZy5Rs7wtZUNEk2bNpwcHOzkmvuCBVsJa/CGJCDAixYvHq/zwVo4ZNeuU3KNvlWr+mrWZ555SB7/+OMu+fvhhyOkco+MPEOTJy+hPXui5PmkSYPUPDiActq9O0q2Nzs7nyIi2qltmjz5exo37huKjU2Syh/H+IwdO1enjIpO4uNT6e23FwnFuV4mxcBNX0aO7CkHDkiH9XwobsW6AcsC6p0yZanMhmtS2qIMrjA7//TTl8VM34nWr99L7723jOLiUuX1dOvWXKc6zLaRb/78rXJAMWZMXzXeVG7IAIdBWBswqJoxYxWdPn1FLQcHDUPFoFVMdBLTyj73Px0+S+uPnJPpi4tv089Hz9HaQ7rrot2b1qEBrRtRcmYOzfn9EE38cQf9dS7ObOe1d9bupMniUygsZBgg6Is59bg6OtAXz/YkOPRN3bBbHWjsjL4iryHuusYihevTvx79eu/k3Ds4TE4kZP8l+oser05Ti7spLHxQ6ItH96JNH42j3Mwb1G3UO4RZvbb4hjWVSh/9ICYWj4x5V43uM+Fjqdyvnj4k+5T8rJuqklYTVXCA2X/v8f+lW/l5tGPeB7T9f1PkccSk2QSLpL6ERwyl1NhztGXWW7T/x3mUnZasn6TS59GLXqXoxa9ScUEu5V2Pl8c4v7z50zJlOvuEkrNXECXu/VEq/5sxB8ukUQKUiZNyDmUP5Z5z7Sxd+PEdSvhrMdm7eFDY06X3R0l74oJm2aqDUPLGRBncGktTFeKqxAy+Zf/hcoSIkerBtQskF5ioFGcRBDTvPViG/yAUI8xG0Ts30sRfL1Boq84yHF+PCKc8URDtXDiDjqxfLMMrY1I6+/evdE58Wj/xvPw9IUax7QePISjseGHiD2rWlnKFY9ze5f+TdeDBr9O6K9V/sLs8V77wB7hh+lh5CstDq8dHUG1hooNDHUbqEJjpMFK/Fn1Mnpv7BeUDQccOZb93bzT16dNGONHVoZ07T9KgQV1k/PTpK0Vnf5n++OO4mBlOV9enYfb18fEgKDxF2WH9+oknHpT5tL/s7GBO1p35YWAAWbFiJz3+eAcxqu0mzcIIa9MmjGANSExMl8ofjn1YRoCihEDxt24dRg8+2FieK19ZWXmE9kKaN68jy8USBEzXmN0nJJBqdo6OjleymfWL5QSYr9PSfGU+/U4BznNYDrh27TqdOBErlz2UWTkywGKAur29NaZuDKD029K3bxtZBur5/XfN/Z03b7MYuLxATz/dRQ6KlEbDdP/tt9vkaf/+7SgoSNPZwrHRVG5KWZMmLZb3Gud4BrQlwKeIsvNstIPU499OXVSPoXKX79U8o2qgOBjSvqk8nbT6T8oRSymQuTvKOjrKCCNfitItEgMJQ52lqfW4OTnSl8N6kruzE7277i+6oLWeDwc8fBTRvj4l7G7+7l76GcFaiE+znk9RzaC6avFwFobAhI/lvAt7t1N4nyGiL2kn+zIlYdzxfbTr25nyFDNtryDNABoB6F8w214x/ikZDwvm8C81A1QZYMLXo2M0M+PIH76ghNOa+3Zs0zLqMGQstRD17VsxR6eU9PiLtOSV3jphd+tEMZOjD5RKPlV3MKpfz/kVb1NuSqwMxizfVKndZZi0ysZtmyeWXAvoZswBqhEaTnDus3cVS6nCZK/I8XOO8rBZfc2zrYQrv+fOnROTDU9KTi59rpS4qvhbJRQ8RpWQi8J0rkjCmSM6Ct7J3ZMKxPqUsiaEdDfE7LpWaANp5sFDovxBndq6WimmUr+FYq1cqQdrYvnZmhkATGRYt4K4eHjRiLmbdMvXm4loDy4Sz2s6WmeR727K6NF9aPDgrmU6Say5QzCTxwwJyl2RVLFmigEBpGHDQPl79mzpmhQGCYYUfHx8Wrlr8JjZYoAB0zWkY8cmwipgT9u3a/4Q4fgGwda7uXP/IY+VL/0ZXEzMNSWKzp/XtOteb9mDzwBm6Rgobd06TfxB35CzcJjyTZUmTTSmVFg19K8ZDovasm9f6UwZvg7BwT4y2hxuyIB2a99r7TpwnJljQ/7eZWfM+unKO68pBngpYvauKPfy0t1puKn1NBS+BhA49MWnZ95ptXeU//S2tWp+9B/2WDsuEewIaj/4FTmRUcLw6+qluc9KWMw+zdIOzm8kXCav4PpKlFgTd6XM1NK/Dfj1SHOMmqLiA6WP1LYMKLl8xbZkfTknLJBVQYqFP5Oi3M1tj72beEbExK/xC1+WyepcK5SyckoHwcF+RTJN0vWyFi5ELFiwQH7KFFRFA6qEgsc6t74YMp3jJhkVRcFWlE4rHssD+nIbzhqKyVaUqSogkU9pa9SO9fTH19N0ssIhT1tgBlNFaZsaYPqBMsNR21GSNSwsgIYMeUjOkhct2kYHD56Xs90RI0otCUq1KKM0fylHQw55pnifG2r9b78doeef705YFlC8ylet+lsmhckXsmPHcfr6683yWPkqKtJVONqOekr7lbT38nf8+IXUo0cr6tevLcH5bezYftJREUshpohyzdOmraCTJ2N1suTl6c4Q4GSnSOl9EmuNZnBDflgSjMmlqw4U7JdHLk7CGS+/9Dkwlkc7Tv5taAdY6NjUevKEYl+5P4pe7NqC/tWvI00TJnpriTIpkPXjwS3pZ/zCmskZclZaEv296GO6dHCntOZ1HjFBuJjp3gNMKBTRfg4QZioTJX95v1iOmju4TZloZSKjHYGl0KogBRmJBpuh9MdilqfG2zq4qMfKQZ6Y+Z9fqfF/UsLwW5SfrX1KrRoVyHNsmbsfpJSKFa8mNfasrD3swR5qKwKbaByWlADsFYe3O7zTFakZWKfEEU6jWK/HX5JRLcS6UXmCh1sZxSJNWMee5SU1GK54x/rUayyd++Dgp3zysjIM5jEWiAfU0bXsIEPJ89xzz9GGDRvkZ+DAgUqw/O3Vq7X8xf7tbduOSg/vTp00JlQlIWbVUO4wdSsCk7wiymxZmW0iHHvIKyM//bRHDiKwLACzMtab4fQFiY6Ok79wsMvIyNH5KGlkAhO/CguL5HUpjoEmZjM72Y4dx+itt74TDnzTpMNa+/aNdMpQnAO9vTUWE+1IxWQPtvrXrD2I0c6jf3y3uSlrjK0bazoy/foqOk8XOxWw1l1DmMYrkozcfPIp2eVQUVr9eFPriRYOer+eiKFdZ69Q8yBf6tu8dMarX2Z55+Hh4cIpcon8+Pv7l5es0uHNeg2Sef/8ZjqdErN8OBA36NTb7PIKc3Oohk9tNZ90OC4ZRKiBJQc3k6/J9Xn9CUx63EXxd2MrvfCVfkv51d5ZpF+eofO7xQ3WV3vn8vtAQ3UrYcUFOfIQTnqK1AjROCkq54VZaeToWVsuA0Cha3+UNMpv8waav4vIE6XWFyUOv8OHD5fPyZw5c7SDq+xxlZjBn/h1pXQmgbdmltjSVku8qEF77Qn0sD6PEe8L32ylyOVfUkvhLQ8nOHjEK7JzwYcUJtap4LyCt+AhT5OHHxeObV7SKQXp8jIzyCugDnV+brw0s4e07KhkN+kXnqvYVhLSoiPBa/bA6vnSSSUcnqbCYe/nqaNNKkdJhC18MMP1emMGXT66Ryw7XFbX55EGjlrlCbyxBw3qLLZ5PSIUaZ40qyue2EoevIQGZnN40n///Q4xG20ntpjBq1/MMIRA8WAQgJfGvPPOYLG+fZ369m2rZNf5rVXLnV55pa9OGMzBe/ackWGYhcbGJquDiU2bSkf/UIQnTlwiOOXNmTNWvhwHSg514RqnTl2uU25FJ3FxKfK6Zsx4XjoHZmRk0+HDF3SyjR7dV5qstQOXLRNrx6KdsH5gGcPPTzNghANhu3YNCVvcTp26LJc2Zs4cKc3yZ87EUYcOjeT+/6SkZO3i5AAGW+yQd/jwR+TLbrCdLiXlJsGi8Y9/9JNWluBgX1q3LlK+S2DAgI7011+naO3aimebd5vbko016NWnM2nsoEwqrxPTuUC9k9UHztBrPdrSZ0O705qD0XKLXL8WYXTwUgLti0nQSY3zgW0aydn1mWupMm2SuE+eYjufv7ubTIsX6rgJJ7lG/t7yPEbsi8cWN3PqQcZ5fx6hFiF+9NJDLeik8Oa/aoa53tvbW/hSaOrH+mpSUpJsy936OrFlJbUbNIo6DhtH8MtpJXx7FE95c+qAuRy7fkZ8tVE6Ind94a1ysx/fvEy+fOfZ2WsJa+ww98ce3kV/zv8P1e/wqFy7R/8YteNn6bzcesBIWi38BLDsaarcLW7wZHcNaES1Ow+jrPjTVJiZanAbm6F2wTkP4tMygvKSL5FHWHuxrq5ZflTSJ+5ZTqERE6jxi19R8v610tTvUb8tedTvQFjX15ZH2+VRSrodJZdjoq9Tp458VvCcVAepEgoe+8OxfazPxI+py/MTJLfMlAThYapZH0ZA5A9fitcvPiid6vpO/ESmgQMItrcpcj0uhn79ZIIo5xMK7/uM/CAOHvGKYNtJb+Fp30V45UOwjhUoHPowilTktuiwb5eYRosRXqIMlTTr3nuJBs/8QeZ78v1vNNlEGnjPaosh87dShpJu62dv0xPvz5cmOzjhJYm1enjYmyJ4c9r+/Wel8oHjFpQ2lFzbtg1U0+6BA+eEWfyYNDW/+eYTMg0c3ZT926jn3Xd/EEp3DHXv3lJWC6c4ONrptx/7rLHery1YX1YUPMJ/+WU/KfXgLXfaAi9ytBPmbgw4IGgzFKG2KGZp3TDdZZyFC3+T6+MYvKANUIT62+SgSPUFbYKC/+CDZ3W223Xu3JTwQXvwhj/xIx3dxo9/UhaB8JSUDLHjYKV+kXLb3MiRPQhe9xAMIjCYQp4JExaKax5JXbo0lR/Ew8Hv55/34VDdf6+/TCEjS75M5aZJrhm4aefXPob3PLb/PNy2cmb6nWKm7Cv8KAa3a0JjHtFYkOAotyMqVrsaebzp+AUK8KxBEeH1CYOAdcKLHeZ0zLKfFvkVCa3lQTMGPSxP3xNvtMOs3JR68CdajBslBG3A9rjPnulOU5/sSqOXbJHhpnxpz9pTUlJMyaKbRlnO0w1Vz7BV7uL+P6RifVr0G3i4Yg//TXXbPqQu+RWXLO/pL/OphYiD34XHe9ADbah245byg34Ts25DO0AuH9ktt701efgxOXnA7qNvX+hG2n0k3haKDwT+TYXaS4oyVDRVq18sCVJ/7phbSUlx276iek/+m6QznAjT3yaHZOU91XDOu/b3D2Jw8CzVffIduX0Ob8RzCyx9vq6f2kGOHv4yTWg/Tb+PMrOvRuFHlQGPCAuJy216d175ylsZCObmaiyTauYqemATHBxcHrsKmxwREUGRkZFiFphRYVpTEuDlCsHNO1DKxTPSS91QHji6BTZtI9JEldkrr50es2J3Yc4qr6wAsQSAOGXfunZeU4/x0hz/RuHy5TTYWoeX1FhDYKaGlzlmjuW9mhUvZYFDHWan5aXBnm1YAuCpbkmBZzjqgkNYTEximVm2Jes2t2w4u2F2Dy93xRxvbhlIj90K2AqHXQWVfaXt3eKGV3FGLkqkBevc6T/fld+ZGbtOrBwHernLV9LCuc1SL5a5F/V8+umncm/zyZMnxbbHKcYu+47isO0NL7q5dvaYVMyVLQz74F29fA2+TMecMrEryN0vkK6LiRK26por94qbKe2ysRX/b4JXAOWlaZYCDeexIWfvILIRzo/w4Ifjnrb8vTCRPGoUU8tnSyeW2vE4XrNmjdgR5CTeobGQNm7cqB9d5c6rlIKvcnS4QUzgPiWAl3nk5NrS6YsO9+kVmn5Z6LTxhrJRo0YJK00lZvCmV3VfpbzfuOENdgmpdhSbYNiw7evrK9458p2YBGWJZdFh1eJeGr6SatF0biQTYAKVJXDwtGEnosqWV53zwYk1QbxcgZW7eXfxfuNWkU8Kno8BAwbIpTfzSFkvNc/grceea2YCTIAJMAEmYDEC5btoW6xKLpgJMAEmwASYABOwNAFW8JYmzOUzASbABJgAE7ACAVbwVoDOVTIBJsAEmAATsDQBe2dn5zuqA96nd1rGHTWAMzMBJsAEmAATYAJlCPAMvgwSDmACTIAJMAEmUP0J2Ofl6W72N/eSCgoKxOs976wMc+vk9EyACTABJsAEmIBxAjyDN86HY5kAE2ACTIAJVEsCrOCr5W3jRjMBJsAEmAATME6AFbxxPhzLBJgAE2ACTKBaEmAFXy1vGzeaCTABJsAEmIBxAqzgjfPhWCbABJgAE2AC1ZIAK/hqedu40UyACTABJsAEjBNgBW+cD8cyASbABJgAE6iWBFjBV8vbxo1mAkyACTABJmCcACt443w4lgkwASbABJhAtSTACr5a3jZuNBNgAkyACTAB4wRYwRvnw7FMgAkwASbABKolAVbw1fK2caOZABNgAkyACRgnwAreOB+OZQJMgAkwASZQLQmwgq+Wt40bzQSYABNgAkzAOAFW8Mb5cCwTYAJMgAkwgWpJgBV8tbxt3GgmwASYABNgAsYJ/B+Xrc1yBvXlswAAAABJRU5ErkJggg==;" parent="1" vertex="1">
                    <mxGeometry x="1240" y="915" width="504" height="65" as="geometry"/>
                </mxCell>
                <mxCell id="62" value="" style="shape=image;verticalLabelPosition=bottom;labelBackgroundColor=default;verticalAlign=top;aspect=fixed;imageAspect=0;image=data:image/png,iVBORw0KGgoAAAANSUhEUgAAAegAAABDCAYAAABX/JaVAAABXmlDQ1BJQ0MgUHJvZmlsZQAAKJF1kE0rRHEUh59hNMUUC2kWypTJaoiLUrPylmgW0zBl7O7cGeNl3Pl350p2FuxHZmMnNj4BGwsrW0pZSBILH0Amha5zDcZLzun0e/p1zul0oMavK5XzAkumbcXHhoLTyZmg755a2mihnYBuFNRgLBaVFj71Z5Qv8Lh63unuOolEJhbuNp8Wb0tt6YZk6G//j6hPZwqG6IuUZijLBk+3cGzFVi6vCTdbcpRwyeVshfddTlX46L1nKj4sfCbcZMzpaeEb4XDqm5/9xku5ZePjBvd6f8ZMTIq2SLUywihRySAJNPrpYUA8/pnpe58ZJo9iFYt5ssxhy/SgOIocGeFxTAy6CAtrdEv1ur/+/cOql9+FgUeoLVa91DYcbkDgsuqFdqBxHQ5OlW7pX5/1lL2F2V6twv4hqLt2nIcO8G3Ba9Fxnncd53VP9l/BsfkGgwdjz0rAZS8AAABiZVhJZk1NACoAAAAIAAIBEgADAAAAAQABAACHaQAEAAAAAQAAACYAAAAAAAOShgAHAAAAEgAAAFCgAgAEAAAAAQAAAeigAwAEAAAAAQAAAEMAAAAAQVNDSUkAAABTY3JlZW5zaG90SgU/MQAAAjxpVFh0WE1MOmNvbS5hZG9iZS54bXAAAAAAADx4OnhtcG1ldGEgeG1sbnM6eD0iYWRvYmU6bnM6bWV0YS8iIHg6eG1wdGs9IlhNUCBDb3JlIDYuMC4wIj4KICAgPHJkZjpSREYgeG1sbnM6cmRmPSJodHRwOi8vd3d3LnczLm9yZy8xOTk5LzAyLzIyLXJkZi1zeW50YXgtbnMjIj4KICAgICAgPHJkZjpEZXNjcmlwdGlvbiByZGY6YWJvdXQ9IiIKICAgICAgICAgICAgeG1sbnM6ZXhpZj0iaHR0cDovL25zLmFkb2JlLmNvbS9leGlmLzEuMC8iCiAgICAgICAgICAgIHhtbG5zOnRpZmY9Imh0dHA6Ly9ucy5hZG9iZS5jb20vdGlmZi8xLjAvIj4KICAgICAgICAgPGV4aWY6UGl4ZWxZRGltZW5zaW9uPjY3PC9leGlmOlBpeGVsWURpbWVuc2lvbj4KICAgICAgICAgPGV4aWY6VXNlckNvbW1lbnQ+U2NyZWVuc2hvdDwvZXhpZjpVc2VyQ29tbWVudD4KICAgICAgICAgPGV4aWY6UGl4ZWxYRGltZW5zaW9uPjQ4ODwvZXhpZjpQaXhlbFhEaW1lbnNpb24+CiAgICAgICAgIDx0aWZmOk9yaWVudGF0aW9uPjE8L3RpZmY6T3JpZW50YXRpb24+CiAgICAgIDwvcmRmOkRlc2NyaXB0aW9uPgogICA8L3JkZjpSREY+CjwveDp4bXBtZXRhPgofHZGnAAAgC0lEQVR4Ae1dB3wVxdY/6Y0Q0ggJCS1U6R0EAeldECnSLZSnoIDKU7EAD+UpiPJQFFFEQBCkSxNFkRLpvQUILSEQ0gjp/Zv/3Oxm7+UmufeaS+KXc37Zu7OzM2dm/7s7Z06ZjU1gYGAumUi9evWikJAQSkhIMLEGF2MEGAFGgBFgBBgBSxCwtaQS12EEGAFGgBFgBBgB6yLAAtq6+DJ3RoARYAQYAUbAIgRYQFsEG1diBBgBRoARYASsiwALaOviy9wZAUaAEWAEGAGLEGABbRFsXIkRYAQYAUaAEbAuAiygrYsvc2cEGAFGgBFgBCxCgAW0RbBxJUaAEWAEGAFGwLoIsIC2Lr7MnRFgBBgBRoARsAgBFtAWwcaVGAFGgBFgBBgB6yLAAtq6+DJ3RoARYAQYAUbAIgRYQFsEG1diBBgBRoARYASsiwALaOviy9wZAUaAEWAEGAGLEGABbRFsXIkRYAQYAUaAEbAuAiygrYsvc2cEGAFGgBFgBCxCgAW0RbBxJUaAEWAEGAFGwLoIsIC2Lr7MnRFgBBgBRoARsAgBFtAWwcaVGAFGgBFgBBgB6yLAAtq6+DJ3RoARYAQYAUbAIgRYQFsEG1diBBgBRoARYASsiwALaOviy9wZAUaAEWAEGAGLEGABbRFsXIkRYAQYAUaAEbAuAiygrYsvc2cEGAFGgBFgBCxCgAW0RbBxJUaAEWAEGAFGwLoI2Ds7O5vVgqOjI5lbx6wGuDAjwAgwAowAI8AIEGvQ/BAwAowAI8AIMAKlEAH7tLQ0s7qVkZFB5tYxqwEuzAgwAowAI8AIMAKlR4O2d3Qin2p1yM7BkW9LMSPg4eFKVatWLJQrzpcv71pomf8vJytWrEBOTg7/Xy6nyOuwtSE6uuIOzZ54X6+sk70duTjYq3lII89cCvIqT9V9KsjN173wZ8hN4O7imN+mOW35lHOl8i5OBVaxt7WVvMXlSnLE9VnYVoGNiBMuHl5yrCqsjLXOefgFUvmKlVX2XkHBFNiwldz86zZV8/8JCRsbW3Kq4E8Obl5mddfZpwq5VAyWm2P5wsc1sxgbFHZ3y6Hz6yLphaeSDM48ukPL3hQr9K/ZgOeo47i3ae0bw+jWqRArtFA6WNbrPIDSHsTT9WN/PrIOzZw5gurXr0Ldu79rtE0I8G++eYV27jxOCxZskmVwbEyI/fzzEVq3br9RPtbMbNSoOgUEeNGuXccfauall/pQ27Z16bnnPqOsrOyHzmszgoJ8admyV2nDhhD66qsd2lMmpR2EEOvbtyWdOBFGN2/eM6lOSReaMvwBVfLOpnW/uul1ZdGI7uTp5kyDF28iOyHFV4zrR1EPkmnSqt165Yo6+HjIkwThCLoSFU9vb9gr08Z+vhrdk67HJNB7m/YZO11o3uJR3el0+D36YJvx8eHlLs2ofa0gmrv9Lzpx8y4tGtGNvNxc5PUVytjMk91e+ZDqdOhN87pVMbPm3y8+dumvlHI/lpaObi+ZDZz1DUFIg3Kys+iTnjVkurT/VO37OlWo8wTZ2NpRdloSnV00zOQu1xn9P7Kx04mulDuhdHnVaybXNadgYrItxdy3pddHJdC3W8qZU7XYypYaH7SNjTLvLbZrK5WMekz9L3WZNPuR9q1oaB/GvkoVX/L19SB7oYUYbo+083mNvfBCN5o2bYDRpuvVC6JKlTzJFqpiEZSWlk7x8Ul065ZlwtXd3YUwIRgwoG0RLZWe0xOeTqTwKHs6F2Ydq8Gor3+mEV9vpdTMrCIv+lr0fQq7F19kueIoYENFPw/F0U5J8vhufDda2L8eRV05V5LdMKttB3cf8qzXiRKuhFDo968KATvVrPpnFj5DZz59mnIyUs2qZ0nheSs8qJxLLj3fv2S06BLVoB2cXCioSdtCHy5XD2+q3KAF3Qu7QAl3wwvEuGLN+lShUhW6feE4JcflD75oIzs7k3Ky8gcPRxc3ykxLpdzcHHIu5yFnnoENW1PEuSOUm51N/vWaGtXi1b5cPU8JURF6fQGfrIw0yhbtVG3ajiJFPzJSk9UyTm7uBJOO+CFbMftDeVB2ZgZlppv3oPn6lqdatSrTgwcpdOFCOOXk5KjtKAlPz3JUp04gnTwZpmTp7TEhatiwGiUnp1FMzAO9c8pBZGQcPf/8Z8qh3t5NaF7QVtPTM/Xyy5VzkXmZmsHaw8ONGjSoQlev3qUooWFpCeUzMjIFrxxq2rSGuJ5blJqaoRZxcXEkOzs7uSET5UG5ubmy7/LAxB9MNOLjk2n48HnimXgYM4VNzZr+5OPjQaGhEVKYIx944ZohoEHOzg5qX9LSMh7S3KGpBwX50OnT1/X6aSs0TVdXJ0pJSZc8HnusCh07dkXyNPwpDDeUBR/gALz8/DwpOLgSnTp1TfJWeI3omUyuzrk0e6m7kmXR3k70u5rAxF5MgqABZ2gsFVl4/sQf+lIQ2Qr8xB/N3npAlCuoFAlNvuB2DGuBJ0zyGeJeZht5BwzLW+MY5mY3r4p059LJh9i7+/qTX62G0mJ2+8IJys3Jt+5Ac3RyLUfpKUnk4OxClR9rXqBVzbtqLSrn7Ue3Tj5sOcC4liG2HDHGFUYYezCuoa3wM4f0xkPUs7W3J0dnN0pPTpRsqrXoIMbRaDHuni+MrVnnoPXa2DkI4dxR1rt3ZCOl34+E6q/Hx961Ajl7B1J2egqlRd8Qz4v+u5orLAV4hAzz9ZjIA/HOBtSR5cAnJyt/XFHKwkTu6FGRUqKuCoH/cDzWtgMuND/Vhl4enEjLthrXorGqCe91enq6GFf0r0Vpx9J9iQnoZk+NpS4vz5ICC51Pjo/RuwY8wMM+WUeBDVqq+RDQKyf1o9SEODWvUe/h1G3yHPmAKZmnt6+m3Z+9KQ+nbAul60f+oPUzxsjjBt2foV5vLKBtc1+hiLOHaeLqw7jTsh/ZWZniJcoh+MPxcH45rKW8uRCmwxb8RL7V6ypNUPT1S7RK9CUrI13mTd50luIjb1AF/ypSEOPhObtrLf2y4N/qeSmgxZFHpSBCeRBmvite6i3TpvysWDGN/P3zfTYYFL/99ldau3afWv29956lJ56oL491gkzXR6VA7dqV6dNPx5Fjnn8uNlb3UirnTdl///00KWD69hX3MI8g8BcseJG2bz9Kn322RQowHFev7qcUoevXo2jSpC+FUNZNmDZtmkGRkbHymiAE0V+YsRcs2CzrLFkySe96UR6E+n36zJRpU36qVfOjpUsnq0WNmbgHDmxLL77YQ8UFhdes+VOYxH+lxo2r07x5z6v1u3ZtQthAP/ywl5Yv/02mge1HHz0nrj1/+eLOncfU6+nQoT7NmDFUTFbuECYCIExyPv98m2q+xySkKNxQb82a6ZSUlConBwEB3siS6V693pdp/LRrrLv3e47m90c9aWJiRNv69FSTWnKSgiq4R7O3HqRzt6NN5EDSfK74ty/eiTVq4janHWfhapg3pDP5ibgJc/ticqeLKDhy0RZS/L4YL9ZOH0axN3WTrXErDsixQGUhMNv37X/p8NovZRZM5P1mfEH3xGQfygUIE/U9n78nxw0cOwoBPvbr3QS/Mwhjja2YrJpLjfsMp64YI/PMwjCF75r/Op3/baPKCuPxkxNF2zt/pAY9h8gxDCdPbFku+6QW/BuJyk++SD5N+6ocao/6VKazUhPp3OfPynSdMQulb1ktJHAL/2URxZ41z+0S1GMyeTXoKk3okpfgc2n5y5QWc0seOnsHUfDQD4X/21NtKurQWrqzf6V6rCRu3bWnOtUKngCtXLlSuAOd6OzZs+Ld1o1PSt2/uy8RAQ1tsvPLM4W2mUn7l31M3tVqU8Pug/Wupf2YaVI4Q+gd+G4eNe0/RgZC9HlzIa1/a5Qsi6CyHlPmSj4nt66gMzvW0GNdBsjZph4zzQEEvyFBO4fm3bT/aPmCXTvyO7UcPIEwi7x+dC89PWe5FM5XQ3YT2mnSbyTVateTek//lLbOeUll5xlQjS7v30GXD+ySk4ZGvZ4VL+VHckKxQphF7ewdxKTjJzmj3jxrvKyXGHNXrW9KIirqPu3YcYwOHQqVgm/SpL5CqHSn338/RdHRD6h9+8ekcI6LS6IlS3ZS//6tpf8Zg6pCs2aNIAcHO+lzDg+PFlpyN+WU3t7f35O++26KXt6nn26hM2eu075956hfv1bUpEkNqbWh0NChT8iyP/6omyzMmTNK9jEk5CJt3XpYlm/X7jGaPn0QzZmzVuUL4bJ//3k6cOACTZ7cj3r1aiEmHbspISGF3nzzexG85kKvvTZQBrq98soSWS85WSd4VCZFJCIiYuiNN5YJYe8pTOUD5cTLsMrYsV2l4J8xY4W0KkAAx8XpJi/Q7CdP/koG0n3wwWjCNUF4gxRfNGbR8+e/ICcumzYJP6jwU48f31Nez7FjVyVmSpvQdjGpun8/RZTpQRMm9FQFtKm4gRcC3jBZwaQI2nPfvq2UJuS+VhUx6RS3/m7sw8/9huOh5J1nkcjJyaXNJy/T7Xj9yVrnelVpQNPa0je97shFqT33b1rL7OCrt9bvJQRt/WfgE1LA63VSHJjTjqujAy0Y1oUquDrTzC0H6EKkbnK/99ItihETlvA4nUUI11dBWBmsRV6BwVIR8K/XjBr2GEJdXppF6/49XDb3QFjYzuxYTWGH9sixA26tDi++RRd+30yJ0XfULvkG15NCO1X4lTuOf5s6TXhHFdA9pn4khfPt88fkuPPkhHeFtu6r1jUlAe27+5T/UobQ1Pcvnyc1546iH72mLxBj25+UkhCrx6Zhr2FS+Ti2fqn0baNecdHdgz9QzKkd5N2oB/k2f4qubZhJGQ/uUa6QAwqlx0dSzIntlBR+lpw8AwiCNqjnK5QQdoSyUu4rxQrdu/gFyzYSb5ykiN8WCyFtT96NewrrqE4pgKJU89mPyc7JVQjkFZQccYECOj1Hfm2GUtKts5R485Qe/2u37ale9UwK9MuiCOEqKojw/hc3Fdxacbek4de4zwg5Q4OGeXT91/IMTDxKsAMyGuQJ7JVCsMHscmnvzzRtx1Wq0uRxlVMnEVQmGNHepR/QiU3fyXxLTDKhEKpig4DG/oyYRUJAQ+BGCBN55frNKVUEdv31w/9kG4d/XCzM2O2pRuvOal+QSE96QFtmT5R50Pyb9BtFlYSJCwFhmCmDYObCTPnOJf2HQJ404QdCBoSBGcL6r78uUY8ezYQQrkp7956lQYPayfOzZ6+h8+dvCsF9Wgz8s1X/LMymPj7lCQJLCQiD/xaC3JDs7GCO1de8INhBq1fvlQJ32LAOqoBu1iyYoI3fvRsvA8wQmAYzPDRMEAR306bB1Lp1HXms/CQlpRH6C2rQoKrkCxM+TL/QriOFFQwmYdClSxFyb+4PzPEQYLGxugFOsWYofBD8BXP6nTtxYgIizGHCkqJoxSgDIYi2vbx0pmJMgAz70rNnM8kD7fz2m+7+Ll68nebOHUPPPNNOT0DD9P3NN7tl8336tKDKlXUaMALzTMVN6fv06d/Je41jPANa8vfJpuQ0G22Wmv7l3DU1jenbD3/pnlE1UySGtKwnD6ev+4NShCsC9MWe43Jvzo8iNLPFRMBYvImp7bg5OdLC4V3J3dmJ3tn4J13V+LMRQIZNIe31KXnFuT+w4hOCtQ5b/a5PU4XK1VT2CHYFwQQOd9jVv36VQrxy/RZyLFMKhp8+RPu+mSsPoel6Vq6unJLjC7Td1VOelnmwII5YuEk9b0oCQh0UsvIzijyvu2+ntq2iVkMmUiPR3qHVi/TYxEdco+Xju+vlFdcBNGVsmUk6C2habDhlJETpsb+x9SN5bO8mJp5JsRR34Q/yaz1YaNXVCQLXFLJ3KS+Lpdy9SunxusnQ7d+XqlXL12pD9i7udD90v/CD/yXzcb7WiPli4tD/IQF9NRyxG6nUol6GUQEdFhZG3t7edOXKFbWN4kqUiIDGrA50TZieFYq8eEJPQDu5e8hZn+ITQbn7d26Rd5Wa0mwBQae8EOd2rVPYWLTPFL5ipR34hNKTdTNwmJjgtwG5lPekUV9s0+ev0UpxQjs5uHtFN1A6i3rFSePG9aDBg9s/NMjB5wyCfxraMoSzQjHCZwiBDqpVK0DuQ0Nvyz1+IOSNCeiIiNgCfdDwW2OCANMvqE2bukIrt6dff9W9RAjcAmHp1hdf/EumlR+tNo+8sDDdS4T0lSu6fj3qJV/wmUNLxkRn165ZdO/efYIWDFO4qVS3rs4UCauC4TUj4E5Lhw5dUg/h6w8M9JHH5uCGCui39l6rTPMSiSk25OcF8WsZQUuNTkxRhbNlXIquZWo7tYSvHYSAtAgDbb/oVoq3xPnd61WGGD/sHZzUY6xIaTl4vFRE1EyRcPXU3WclL+yQzjWC4/uRN8kzsIZySviEXSkxJv/dQFyLNIeoJYpOKGMkNHND8hUWSEOC9a8kqWLLp8m/w5h803ReZ+xd9N+fwvqYeOOUnAj4tRlMvs36UcrdyxS573tCxDfIVWjYIESRY9OSo9DaDamiV7bMChembmP05ps6d6qxc383z3iLf5drEfXh5zUkY6ZnaMeFkiIgiyqnOQ/zuiHlIuRACUQQPFUBIuopfb2wZxP9/uUsvaoIKNNSVnpa/qHSt/wck1OKhqH2I69mcLA/DRnyhNRSly3bTUePXpHa5qhR+Zq80qziz9VVzcfRWECZKdHPxjr/yy8naPToztKsrkQ1r127XxaFyRS0Z89p+vLL7TKt/GRn6wsMbaCZ0n+l7KPcT5mylLp0aUK9ezcnBG9NnNhbBtp9+KFpE0DlmmfNWi38UTf0up6WptM+lUzFIoBj7X1WeJiCG+pCky+Mrt92oMCKaeTiJILJ0vOfg8LqaM/Jd0ObYaW0qe2kCcG85vAFeq59I/p37zY0S5i4S4qUSb1sHw9u3jhTMbi+1FCTYqOEC+8j6SaDNe3xUVNFXLn+PYBCoJD2OUCeqZgo9QvaIx7mi8HNHjqtKCLaExFnj2gPH2kaJu2ATs9TelwE3d67jJJvX5QBZYFdhVVSH7Yi+iUUlMUjhVm7F1Wo257KBTWk2iM/oatrZwgT9mn1fcNxqggO01KukWC7mkG6d/fUZUdt0UeSLn6juQndjrmhm8kEt+6ilg6o20RNI4G1woi2VqKdkVchoKr0NyvRkHER15FNjYTfpCDCw6nMIlEmuE3XgooazVeiM32q15G+ZASoKVtaUoLROoVlQuA7uj48SVDqjBw5krZs2SK3gQMHKtly361bU7nH+t3du0/KCOO2bXUmSKUgtFoIZ5iKFYJJWyFFW1W0PeRjDbEltGHDQfmww6wOs2x4eIwMWgKvS5fCJUsEiMGXrN0Q2GQuZWZmy+tSAtvMrW9q+T17Tgl/97ciAG2WDLhq2bK2XlUluM3LS2ex0J5UTN7AVnu9SGsnIdo6hunixu3MVZjniJrWyTBsyqTjeBHlj4+PlBOm5aIoITWdfPJ82kWVNTxvajuXRIDZjjNhtC/0FjWo7Es9G+RrnIY8Czpu2LChcF8sl5ufX34AY0Hlzc2v322QrPLHV7PpnNCyEQBbs213c9lQZmoKlfOppNaTAbMaZUM9IRIP7t2RQWCGCkh8+DXx3tjKuBxl3FL22pUtWl4Fpa2Nm0ftx2XTEXuW0APhc85OSyQPYY4uiLJSEsjBXeeyMiwDGRFzchtdXfMmXfxW53b0btxDFksVpm8QzObZ6cl6m7FI7yqVsilFuIkKWvgxe/Zs+SxNmzZN8i3OnxLRoBHMBZMLogWTxJIob7HQXut7wQXCP40Z55ivdlHIDwupsYjWRpAVIrIV2vv1HAoWfmAEXyBgDHXqduwnvvTjKaO0US4tMYE8/avS4yOnSDN1UOOCb7jCV7tH5CSWJQQ1akOI2jyybglBU26ISEcRcLZ55jht8SLTWAIGM1a3Vz6gmycPCrP9TdU/jcqFBRogGnjQoMfFMqFOQhCmSbO0EgmsNIyPiMDsjEju77/fI7TBFmKJkq06a4SwgBDHRz/eemuw8O/GUc+ezZXqentvb3cZ5KTNhDn14MGLMgta4I0b99TJwLZt+bNvCDIEk+EDI4sWTZQfN4GQQlu4xpkzf9CyLTKNYDZcFwK08EGVhIRkOn5cf/Y7blxPafLVMlu1SvhORT9hfYAboGJFnakMwWItWtQSn63NoHPnbkrXwNy5Y6VZ++LFcGrVqrZc/x0VdU/LTk5AsEQLdUeM6CQDxLAcCwF6sCj861+9pZUjMNCXNm4MkWvJBwxoQ3/+eY7Wry9a2ytu3Jb/XI5eeiaRJg5KpJAz+SZYvYsq5ACBYS93aU6fDOtMPx29JIPEejcKpqPXI+lQWKReTRwPbFZbarcX78TIslHiPnmIQC0/dzdZFh9EcRNBXrX9vORxmFgXjSVS5rSDiov/OEGNgirS8080orMimtwwuE0yL+DHy8tLxBLo2vfw8BDvg74ftIBqJmef2bmGWgx6kdoMnyzjUpqI2BYlUttkJqIgzM1YdTLq85/p7C/rqP2Y1wqsfnr7KvnxlGcXrCf4mGEuv3F8H/2x5D9Uo9WT0neN8fHCns0y+LbpgLG0TvjJ4TY0layN2/1L+ymgw1jyaztUrnH2atiN3KvqK27avt4PPSgCuwZT5c7jRaDXeUq9d00s27ojzNbtCcI+9tROGVjm22KArJZy57LcJ1w9LPITKKDjc+TsFUgxp3fKaG5EmMMvHXduj9pMkAgM8xMm7h0HXdQ8w0S1atWoQoUKYlVGTcNTf/u4RAQ01gdj+VGPaR9Ru9FT5UUkRkeSu2++/T9k5UIRtd1aBoX1nPaxLIMABiyPUiguPIx2fDxV8PlYCMyhcsM5RForhGUL3UWkdzsRFQ6CHydABKQpWjjycsWAm5tnks3Bmrw8O6tSZuO7z9PguStlvafe+wpVZBm8NFoyZj5WeCjldn3yBvV/b4kMIIPZK0r4qhHhbQohWvjw4VApPBB4BJMYhFTz5jVFUJMwsQk6cuSyMCufkqbaV1/tL8sgUEtZv4sy77yzUgjNCdS5c2McyqAuBIoZ9h/rbOHv1hL8q4qARj6is5V28JUxLb377ioZIAVzMSYMIPQZgkxLSt/18/TdIEuX/iL9wxDS6AMEmeEyKwhCQ0KfIKDff/9ZveVajz9ej7ChP/jCGm45ArWmTHlKskB+dHQCzZq1xpClXHY1dmwXQtQ3CJMATIZQZ+rUpeKax1K7dvXkhvMIUNu8+RCS6vprQzO/PJn3YypuuuK6+66tr00jevvgaSfq2NwyM/deoan6ijiCwS3q0oROOgsOAr32XLihbUamt52+Sv4e5ahXwxoEIb5RRFHDHA0t9xlRX6Eq3uXpg0Ed5eG74oti0IpNaQePeA5ulCD0AcurPhnamWY+1Z7GLd8p80350WrN0dGmLxVTeSvuMDVDP4GlVtcO/y4F4zNi3MDDdeP4fqrWXESw57n3cvLcY4ZuMi2n3/43Q6yPbkaV6jSWG8ZNaL3G1v/ePHFALpuq27GvnPxj9cs3YzqQdozE1xqxgRCdnal1yeU1bDhe5WXL3d/GTcsM6bx7qWQjYCzu3G/kVb+LDNjC+fiLe+VHTcTgpBRT99HHN5OTV4D0MyO4S10mJep5Ct+yZ90Osiyitx9cO0bRxzbn1c2lK6tfpxqDZsvobkR4g6A9Q+vW0vvjEmQ33/7CU5utl3Zx0Qnv2NhYvfziOLAJDAws/A3XtNKrVy+xvCREaC8JmlzLk1gcH9igFUVfuyijpI1xQqBWgFjGEH3twkNrpbXloZW6C3NQQbz8hQkd55R1y9q6pqbx0RO/2g3lx0WwNAsfGSkJgpkXUc7Q3DD4GyN8VAMBYdAOCyqDNbvQxBEpbU1CZDLaQkBTWNjdh7Rca7ZtLm8Ea0G7RpS1Ys42lwfKI1oeS6kQ1a4swzKXT3HhBi0gZNld+nqjO/3nW9ODbbT9hQswwNNdftITwVnW+jDIo2hn/vz54nmsbZV1q1rM8D0FfKjkTugpKVi158xJYx20q6ev0Y+hmMMHq1LcKwZQnFB0ksxc3ol2HhVu+KAJNFtEeRc2YSjs2mHWd/KqTDb2jsLPHFZgUTsnN1kOGrVhRLmjQy6FbrhNf55wprEzfYzywKRl6dKlQojnCmvj+GK3xpSogDZ6xZzJCDACxY5Ay/rplJJqS+ev6XzSxd7AP4jhTz/9JD5G4yi+H/CisJJYoEH/g661OLta1nCzt8+lzi3S6PA5J0pIMh6uNXToUOHqGiGWcJ4SVsL3ihNuyatETNzFfhXMkBFgBApF4Oh58/3PhTL8B59EEGakWFzPwtm8m1jWcMvKsqHdhwr2PQO9tWvXEiYuhu5B85AtuDRr0AVjw2cYAUaAEWAEGIESQ8C43l5i3eGGGQFGgBFgBBgBRgAI2OM/cZhD8N2YW8cc/lyWEWAEGAFGgBFgBMSyWwaBEWAEGAFGgBFgBEofAvZpaWlm9SojI0N83MG8OmY1wIUZAUaAEWAEGAFGgDVofgYYAUaAEWAEGIHSiACbuEvjXeE+MQKMACPACJR5BFhAl/lHgAFgBBgBRoARKI0IsIAujXeF+8QIMAKMACNQ5hFgAV3mHwEGgBFgBBgBRqA0IsACujTeFe4TI8AIMAKMQJlHgAV0mX8EGABGgBFgBBiB0ogAC+jSeFe4T4wAI8AIMAJlHgEW0GX+EWAAGAFGgBFgBEojAiygS+Nd4T4xAowAI8AIlHkEWECX+UeAAWAEGAFGgBEojQiwgC6Nd4X7xAgwAowAI1DmEWABXeYfAQaAEWAEGAFGoDQiwAK6NN4V7hMjwAgwAoxAmUeABXSZfwQYAEaAEWAEGIHSiAAL6NJ4V7hPjAAjwAgwAmUeARbQZf4RYAAYAUaAEWAESiMCLKBL413hPjECjAAjwAiUeQRYQJf5R4ABYAQYAUaAESiNCLCALo13hfvECDACjAAjUOYR+D+bvHZ1q+C5LwAAAABJRU5ErkJggg==;" parent="1" vertex="1">
                    <mxGeometry x="1240" y="1030" width="488" height="67" as="geometry"/>
                </mxCell>
                <mxCell id="63" value="" style="shape=image;verticalLabelPosition=bottom;labelBackgroundColor=default;verticalAlign=top;aspect=fixed;imageAspect=0;image=data:image/png,iVBORw0KGgoAAAANSUhEUgAAAb8AAABCCAYAAADHaNgBAAABXmlDQ1BJQ0MgUHJvZmlsZQAAKJF1kE0rRHEUh59hNMUUC2kWypTJaoiLUrPylmgW0zBl7O7cGeNl3Pl350p2FuxHZmMnNj4BGwsrW0pZSBILH0Amha5zDcZLzun0e/p1zul0oMavK5XzAkumbcXHhoLTyZmg755a2mihnYBuFNRgLBaVFj71Z5Qv8Lh63unuOolEJhbuNp8Wb0tt6YZk6G//j6hPZwqG6IuUZijLBk+3cGzFVi6vCTdbcpRwyeVshfddTlX46L1nKj4sfCbcZMzpaeEb4XDqm5/9xku5ZePjBvd6f8ZMTIq2SLUywihRySAJNPrpYUA8/pnpe58ZJo9iFYt5ssxhy/SgOIocGeFxTAy6CAtrdEv1ur/+/cOql9+FgUeoLVa91DYcbkDgsuqFdqBxHQ5OlW7pX5/1lL2F2V6twv4hqLt2nIcO8G3Ba9Fxnncd53VP9l/BsfkGgwdjz0rAZS8AAABiZVhJZk1NACoAAAAIAAIBEgADAAAAAQABAACHaQAEAAAAAQAAACYAAAAAAAOShgAHAAAAEgAAAFCgAgAEAAAAAQAAAb+gAwAEAAAAAQAAAEIAAAAAQVNDSUkAAABTY3JlZW5zaG90eV3reAAAAjxpVFh0WE1MOmNvbS5hZG9iZS54bXAAAAAAADx4OnhtcG1ldGEgeG1sbnM6eD0iYWRvYmU6bnM6bWV0YS8iIHg6eG1wdGs9IlhNUCBDb3JlIDYuMC4wIj4KICAgPHJkZjpSREYgeG1sbnM6cmRmPSJodHRwOi8vd3d3LnczLm9yZy8xOTk5LzAyLzIyLXJkZi1zeW50YXgtbnMjIj4KICAgICAgPHJkZjpEZXNjcmlwdGlvbiByZGY6YWJvdXQ9IiIKICAgICAgICAgICAgeG1sbnM6ZXhpZj0iaHR0cDovL25zLmFkb2JlLmNvbS9leGlmLzEuMC8iCiAgICAgICAgICAgIHhtbG5zOnRpZmY9Imh0dHA6Ly9ucy5hZG9iZS5jb20vdGlmZi8xLjAvIj4KICAgICAgICAgPGV4aWY6UGl4ZWxZRGltZW5zaW9uPjY2PC9leGlmOlBpeGVsWURpbWVuc2lvbj4KICAgICAgICAgPGV4aWY6VXNlckNvbW1lbnQ+U2NyZWVuc2hvdDwvZXhpZjpVc2VyQ29tbWVudD4KICAgICAgICAgPGV4aWY6UGl4ZWxYRGltZW5zaW9uPjQ0NzwvZXhpZjpQaXhlbFhEaW1lbnNpb24+CiAgICAgICAgIDx0aWZmOk9yaWVudGF0aW9uPjE8L3RpZmY6T3JpZW50YXRpb24+CiAgICAgIDwvcmRmOkRlc2NyaXB0aW9uPgogICA8L3JkZjpSREY+CjwveDp4bXBtZXRhPgqLOZWHAAAcv0lEQVR4Ae1dB3xUxdY/QHqAkEAIJaFFmiT0KohKDwiGRxEM1QeCIj7ATx6KIvBRLMjDh3QEpEoRRKoURYTQayihhBYIJAFCICGNJG/+s9ybu5vdzW5CltWc8+PunTtzpv3nZs6cM2cuhXx9fTPFRTExMZSamkq5paCgIAoNDaX4+PjcFsH5GAFGgBFgBBgBmyBQ2Ca1cCWMACPACDACjIAdIcDCz44Gg5vCCDACjAAjYBsEWPjZBmeuhRFgBBgBRsCOEGDhZ0eDwU1hBBgBRoARsA0CLPxsgzPXwggwAowAI2BHCLDws6PB4KYwAowAI8AI2AYBFn62wZlrYQQYAUaAEbAjBFj42dFgcFMYAUaAEWAEbIMACz/b4My1MAKMACPACNgRAiz87GgwuCmMACPACDACtkGAhZ9tcOZaGAFGgBFgBOwIARZ+djQY3BRGgBFgBBgB2yDAws82OHMtjAAjwAgwAnaEAAs/OxoMbgojwAgwAoyAbRBg4WcbnLkWRoARYAQYATtCgIWfHQ0GN4URYAQYAUbANgiw8LMNzlwLI8AIMAKMgB0hwMLPjgaDm8IIMAKMACNgGwRY+NkGZ66FEWAEGAFGwI4QcFDa4uTkRIUL500WogwXFxelSL4zAoyAHSLQu3dvs61atWqV2XROZASAQE7vEXjs+V1ShR8aysQIMAIFA4Fl65YZ7Wjf7n2NxnMkI2AMAVPvEXjt/V3SE37JycnG+mdxXGpqKuW1DIsrY0ZGgBHINQIpKSkm8/LfsEloOMEAAXPvEVjt+V3Km53TAIj8enRwcqZSlapTEUen/KqiwJbr4eFGFSuWNtt/pBcv7maW5++SWLp0CXJ2dvy7dCfHfhQuRHR8YQxNGvRQj9fZoQi5OmatjRFGnLXk51WcKpcqIS/vYubfIXeBu6tTVp3W1FWqqBsVd3U2mcVBbOmgbNFdSU7oXy7rMlmJSHD18JJzlTme/Erz8PGl4qXLq8V7+fmTb2BjeZWtUU+Nz4/A7hmxtPjjuPwoOt/KzN2blm/NMV5w/eCB9MrgT2j1R73oxslQ40x/g9iarYIp+WEcXT36h816M358CNWqVYHatfvMaJ0QjgsXfkDbth2j6dM3SB48GxMQmzYdpjVr/jRaTn5G1q5dmcqV86Lt249lq+a99zpRs2Y1aODAGfTkSXq2dG2En583LVr0L/rpp1CaO3erNsmisKMQEK+/3oiOH4+g69djLMrzvJlGvvmIypRMpx9/c9VrysyQduTp7kI9Zm+gIkJCLh3cmaIfJtL7y3fo8eX08FXP1wiCB3QpOo4++WmPDBv7mduvA129G0/jNuw1lmw2bnbfdnQqMoYmbzY+PwxrXZ9aVPWjqVsO0PHrd2hmSFvycneV/TNbsJWJbT+YQtVbdqSv21awMmfe2Qcs2EmPH9yjBf1ayMK6TlhIEICgjPQn9E2HKjKcHz9Hwp2oX/vHVMEnnW5EW79Iyo825VTmX0LzK1RIWa/l1J2/dnr7kV9Q6/cn2rQTOUObHfsKFbzJ29uDHMTq2fCyaeOfVvbPf7alUaOCjVZds6YflSnjKZy5svfDMENycgrFxSXQjRu5E1zFirkShG1wcDPDou32+d03EuVkdeZK/mi7fedvopD5v1BS2pMcMbgS+4AiYmyjPRRSdcAcm/WXZVj8Tlv6tktNir50Jt/7MGVpccrMJJo27EG+1/WsKrBbzc/R2ZX86jYzO3BuHiWpfEBDiok4R/F3Ik1iUvqFWlSiTAW6de4YJd7PmthQR3p6GmU8yfrDdHJ1p7TkJDGQGeRS1EOumHwDm9DNM4cpMz2dytasZ1T7VNty+SzFR9/UawvKeZKaTOminor1mlOUaEdqUqLK4+xejAoVEusQIYkKF3GQ9SIxPS2V0lKSVD5LAt7exalq1fL08OFjOncukjIyMrJl8/QsStWr+9KJExHZ0hCBxUZgYCVKTEymu3f1zWFKhqio+/T22zOUR727u9AYoGWlpKTpxRct6irj0jQToYeHOwUEVKDLl+9QtNAMtAT+1NQ0UVYG1atXRfTnBiUlpaosrq5OVKRIEXkhEvygTPFXiLZbQxDicXGJ9NZbX4t3IjtmSlkvvFCWSpXyoAsXbkpBiXjghT5D+IFcXBzVtiQnp2bTOKFh+vmVolOnruq1E97Wbm7O9PhxiizjxRcr0NGjl2SZhj/mcAMvygEOwMvHx5P8/cvQyZNXZNlKWX3aPSY3l0z6bnFRJSpX9yKi3ZUEJg5igQHNLVWjYT/B+yf+oS2mqLDAT/yjib/sE3ymuEhooKbrMcyFMmGmTRVjmW7kb8CQPz+eYYJ09ypNt8NPZCu+mHdZ8qkaKC09t84dp8yMLKtEocJFyNmtKKU8TiBHF1cq/2IDk9agkhWrUtGSPnTjRHaNF/NaqrgyxBxnjjD3YF5DXZGnD+rNh8hX2MGBnFzcKSXxkSymUsOWYh6N1Svy4eNCBO2veUAqOTlmUmpa9sUmTgM4iLKeoF3CP+R5k10Kv/pvDKDWwyZIYQCAEuPu6uGEl6PXN2vIN6CRGg/ht+z9zpQUf1+Nq93xLWo7fJIcPCXy1JaVtGPGGPk4YvMFunr4d1o3tr98DmjXnYI+mk6bp35AN8MO0dCVh/BXK9uR/iRNvKAZhP1HDPycXo1Ekk5A9pq+lrwr11CqoNir4bRctOVJqs6pYPiGMIqLukYlylYQf+SFZb6w7avp1+n/lnmQLoWfePIo40d4BmHFtvS9jjJsyc/SpaOobFkvlRUTzvff76TVq/eqcePG9aaXX64ln3VCQt/xoVq18vSf/wwmp6f7Iffu6V54tQALAj/8MEpO3q+/LsbwKUGYTp8+iLZsOUIzZmyUwgHPlSv7KCx09Wo0vf/+HPGHoVuMbNgwlqKi7sk+QcCgvTBtTp/+s8wzb977ev0FPwj5O3UaL8OW/FSq5EMLFgxXWY2ZPbt2bUaDBrVXcQHzqlV/CDPpTqpTpzJ9/fXbav42beoSLtCKFXtoyZJdMgxsv/xyoOh71nGgbduOqv1p2bIWjR37plgI3CYIWRAWEN99t1k16ULA54Qb8q1aNZoSEpKk4C1XriSiZDgo6HMZxk+LQN0EtOuY6b0yldlEIKRZLXqjblW5AAALxmjiL/vpzC39ydFEdhkNk6qyn3j+9j2jZk9r6nER5ueve7YiH7FPbW1bzLXTmrQ+MzeSss+G+WL16F5077puITN46T45F6jlCcz2fv8FHVo9R0bBbNp57CyKEQtpLNxBWATv/m4cYd4AOQnhOGD+DsI+HwhzTWGxELSW6nR6i9pgjhSLbhDMo9un/R+d3bVeLQrz8WtDRd3bfqSADj3VuSr5opgfVyxU+Y5ecKTGNVOpcY002heW3T9jypQpVK1aNbEAe0y9evVS8z2vgFA37IugBbUaNl5oSWm0Z94kCvt1DbmX0P3xKi1t0X+UFHwQKJsmDxOC6rAUGp3GfKuwyE3n9iOmSkFz4pel9MPQIDqydh45ubqpPIYBCFVDglaJ/EUcHCn+9g1ZhruXN2H1A/rHpCVS8F0O3UFrx/ShS/u3y+eOo/+jV5RnuUp0ad92KVhTExOodlBvuTkOpqXCVLZ8eBf5AifcvSPDeF4/LmtC1SvMxEN09AMh7HbQ4MEzacqUNfToUZKYsNsJE2VxmaNFixel4Lt/P4GmTl0rNUPtRAymCRNCyNGxiNzjmz9/O2HPzxiVLetJixeP0Luw9wbau/eM3BOsW7eKmvXNN1+W4R9/3Cvvkyb1lYIvNPQ8jRmzhPbvPyefR4/upuZBABP3vn3nZHsTE1MoKKih2qYxY36g4cPn0rVr0XLSRRjX0KGz9MrI6eHmzbv00UeLhFDZIFmxqDGkAQPaSKEKPuwfQqgpWjE0UtQ7duxSmQ19UtqiLDyg1U2b9k+hITrThg0H6LPPllNk5F3Zn5YtA/Sqg5aGfPPmbZfCdsiQDmq6pbghA5x3oKViwTF58mo6e/aGWg4CVf3Egk6s7e7cy/7e/3TsAm04flHyZ2Rk0s8nLtK6o+F6+VvVrEjB9apRzKPHNHPXURr1427642Kk1Y4kH6/bQ2PElSYsKxCehmRNPW5OjjSjdxuCc834jftUIbwn/IbsQ+R9nSUD/TPsj2G9eXn28vWXi2w5f4n5ovV7WQvBh8IyBGG3eHBb2jxlOCU9ekAtB31M0Aa15O1fUwpEzINYdL865FM1uf3IL6Xgu3X2qJxTUhIeqgJMZcohAK2x3Ygv6ElKMu2e/Tnt/O9YGQ4aPZ1gyTKkwKBedPfaRdr29Yd06MfZlJGUoMdyOkJnOm/yonmtzl62sexO86vTKUSuLLDCObJuvgQXar+ycYuIgHY9ZPwyITSgiofv2USjtl6mCnVfkvH4eVU4yIiCaM+CyXR8w2IZHxNxVk23NHDhz610UVz1uvST99Ni9dOoxxCCMLspzKblazWgJOGkcmDFf2WReCkq1mtBVZq00qsCL+fGiUNlHDTWup37Uhlh9oBzC1Z4IJg+sMK7HX5SPlv7g4kZhEkPgvDAgXBq376+cGipSHv2hFG3bs1l+sSJq8REeJ1+++2U0CgmqvthMKWVKlWcIAwUQYD9si5dmsh82p8iRWCiy9JgkAahCVq5cg917txYrO5aSlMb4urX9ydokXfuxEnBCCcbmGYhREAQivXq+VOTJtXls/KTkJBMaC8oIKCiLBdmXZgDoRVGRZFqygsP1zc3K2XkdIeJFibBe/e8JauihSv54MgCE+vt2/fp9Olr0pSsaHPggaaJur28isksWFwYtqVDh/qyDNSza5dufGfP3iKEen/q3r25XDAo9cEcunDhDvnYqVNDKl9eNxHBychS3JSyRo9eLMcaz3gHtFSuZAYlJhfSRqnhX89cUcMQRysOZP/b6dmopuQZveZ3eizM06BZu7M7HckEMz+KQEoXQtbYxGhpPe7OTvTtW22omIszfbr+D7qs2T+EMwwuhbT9U+Ke5X3f0m8IViZctdr8g0qUr6QWD8c9EMyi2CK5fGAnBbbvKeaShnIuUxgjTx2kvQunykdoaJ7ldYtLRGB+gZa2csQ/ZDosXyHf6hZvMsKCn9eGfCa5QpfNoKizunE7uXk5Ne45lGqL+g6unKlXStzNK7TknXZqnP/AgWoYgVOXdNpercq6d0EvUTxcvHhRLFw9KCYmaxwMeWz5bHfCD6sR0BVhjlQo6vxxPeHnXMyDUoU9XLFBg++B0MpKVniBoL1BiCgv25nta5RicnVPE3tzSj2wwack6laOMDvATg5yLe5JfWdt1i/fYAWrFbx3LukmIReR71nS4MHtqUePFtkmEOzxgaABYmUNwafQXbFHA2EJqlq1nLxfuHBL3vEDAWpM+N28ec/knh80IghfmANBTZvWEILRgXbuPCGf4YQCwvGJWbPelWHlx3DlHxFxW0miS5d07bL1sQvsUUK7wyJi+/YJ4o/3gdTeYB61lGrU0JmnoA0b9hnOQ1o6eDBLw8Leqq9vKZlsDW7IgHZrx1pbB8KPkgqRj2d2TcuQz9RzCbH4iRVanyL4TPHlNd7SeqqKvU0QnGtuxj3Ka7V5yn92xzo1P+YPB0dn9Rme6416vCMX+WqkCLh56sZZiYs4uEsJ0oOo6+TpW0V9dnJxo0d3s/424Ecg1XiVI+eAMkdqNUoll7c4WmZIF4Xlyhz5lk6XyXfuFzbKNn/+fMJlL2R3wg/7aoZkzBwJrc4sKcInJz5NOkyuhpRJYnJQzGCiTHVyFvmUtp7bvYF+mzNBLyucY7QE04JKStvUCMsDyspYbcfTrP7+Zalnz5eldrVo0Q46cuSS1JL69s3SQJVqlf0zXdYsHI05x1jiJWms9b/+epz69WtFMLUq3o+rV/8pWWFGA+3efYrmzNkiw8pPerr+ZKx1mlHar/Da8j5ixAJq3boudezYgOCIMnRoR+k0BPOyJaT0ecKElRQWdk0vS3Ky/koZDi8KacdZKcMS3JAfGqg5uhLlQL7eKeTqLBxjUrLeA3N5tGnyb0MbkU9hS+tJFkJv1aFzNLBFbfp3x6Y0QZg9nxcpC2ZZP17cp/NMaf9aUrNKuBdNfy76kq4e2SOtQC/1HSn8T/XHAItthbTvAeIsxUTJb+oOE/+sHvWzJSuLfG0CtpfMUd2qqTIZji9/BTIuop9jy+9euyBr92/SWm1FuRo65wElAmfh4JUJL0qFSpSrKPcJFa+p+zevyqTawk5tijDwyuoHPP5N25hiNRqveHGVqlxdOtrA2Ua5khPijeYxFwlh6uSWXQArefr06UMbN26UV9euXZVoeW/btp6843zajh0npCdis2Y6s5TCCG0Mgg/mQ4Vg5lRI0bIULQXxOCOXG/rpp/1yoQBTK0x12N+CAwYoPDxS3uHsEh//WO9SeCSDhT9paemyX4qTjoXZrGbbvfskffjh98KZZoJ0HmnUqJpeGYqjjpeXTtPWJipmUGBr2GetgNfmMQw/a9yUPZr61fSFr2G9pp7jhEct9taKCnNjThSflEKlnnrj5sRrmG5pPeHCWWbr6Qjae+EGBZT3pg4BWZqSYZmmngMDA4WD0hJ5+fhkOWOZ4rc2vlbbbjLL73Mn0hmhHcKZ74Vm7awthtKSHlPRUmXUfNL5T7OQVxNE4GHMbbkfaLi4j4u8Iv5uCktvUWXeUu5aD3htWebCgVV071FoWJaWq+UPCQmRuM6cqW9O1fLYMmx3mt/pravkxi68ihLEsYSS4pCm1tYNcLAfiJVS/7nbKXTFt1RHeHXCIQWemwrtmT+J/IVdHBvJ+DoM8tR4pbNwMvGUG8TgS34UT55lK9JLfUZI06VfnaZKdovu8LCCa7Bf7aYE767Da+bJDeNAeEQJ8+vP4wdbVI7ChGMYMG20/WAyXT+xX5hyr6v7geAx9+FxeA126/aScNV/VQiZZGmqVDwGlfJxAB2mSHh8/vDDbqHFNBTHBOB9KlamgjApQ0DiwPjHH/cQ+2n3qUOHBkp2vXvJksXonXeyHDGQCBPb/v3nJR+0l2vXYlRBu3lz1qoRQuL06asEB5mZM4fKg/EQAKgLfRw/foVeXTk9REbGyn5NntxPOurExyfSsWOX9bINHtxBmgG1kcuXi70q0U5ozTANly6tW0zBmadhw6ri00ypdObMdWkunjp1gDR1nj8fSY0bV5PnG6OjY7TFSeGOYxLIGxLyqjzojiMRsbEPCZrwu+92lNq5r683rV8fKs9KBgc3pT/+OEPr1uWspTxr3BZtdaNhXRPo3eAE2h/mpdcXSx7WHD5Pw1o3oG96taK1R8LlMYeOtf3pyNUoOhgRpVcEnrvWrya1svO370reaDFOHuJIhk8xd8mLw/TuwmGlmo+uLRHi3B+OKVhTDwqa/ftxqu1Xmt5+uTaFCa/TW1aYQL28vMTera5+7E9FR0fr9SOvD6e3raKG3QZR07eGE/wA6gpfAsWj05qyYYKEd3rf7zZJp8AW/T80mf3UluXy4H3v6esIe3owoV47tpd+n/f/VKXxa3KvEPPjud0/S0fCesEDaI3Yl8RWkjXUqn4KxTwoTNFxxnWqihUrSmyBqz2Q3Qk/nH/DEYD2o76k5v1GSowexUYJTyjdfhQiQpd9Kz7Z00Q6uHQY9ZXkwWYsjigodD8ygrZ+NVKU8xUFdnhTXkiD56ZCcB1uJzxCmwvvURDs5uWEc42iPSIuU0xmmU/NdBk4i/NUUCg86z97m3pMXSbzvTFuLrJIHnh5acmYSVEpQ+Hb/s1H1GXcPGkGgUNMtNgbhCeoJYQvihw6dEFOzHCigECDAGjQ4AXhoKETbocPXxSmxpPSfPevf3WRPHA6Uc6noZ5PP10mBNIQatWqjqwWDipwejFsP86RYX9RS9jPUoQf4n/55RAp9eDrL1qCtyPaCRMihDEIbYaQ0JLSdv04fdP4ggW/yv04CHa0AULC8KgDhIwhoU0Qfp9/3lvvyMRLL9UkXGgPvnyDIYfTyYgRb8giEB8bGy88Y1cZFimPPgwY0JrgHQqCgMVCA3lGjlwg+jyAmjevKS+kw9nm558PIqieLzQ0/crEpz+W4qZj1427Nr82DC/P/WKV/mq93Jk+9wgNy1vs2/ZoWIOGvKqzPMBpZfe5a9pqZHjzqctU1qMoBQVWIQjI9cLbEiZKaGfdRX6FKpQsTpO7vSIfPxNfeoE2Z0k9eMUzMFCC0AYccfjmzVY0/o0WNHjJNhlvyY9W24uNtfy4hlq2skWiRugHcNzhyqHfpNDpLuYNvFzXjv1JlRq8rG6jZDzdMjHcOtGWtEt4ZpZ/sT6VqV5HXpg3oa0Z81S+fnyfPLpQ45XX5cIaXvIL+7ck7RyJr2jhAsGfIk27TfO0YsP56mm0vHVtmURFXTPpk/mmBZuyqEhK0lmAtPmfR7iQr69vprjowYMHYuWaZWO2tjFBQUEUGhoqtId4a7Ma5cfBSt+AxhR75bz0pjTGBKeTcjXrC55z2c4CavmhTRUTJgJTZZUVZlWkKefytHktDePAvE+1QHkwHccjcED9eRBMf/CGhMZh6nNeOJAN5xZoNaZ4cCYNGiQ8KvOT4MGIuuCcERFxJ5t2lp91W1s2HE+gFcIbUzFxWlsG+OFVi+MM8H7N7WfQ8oLbQOGlt/Dp+Sx8jurg3Biau9GdJi4pToNCBonjK4ut6hZ2qsp5FpOfMYOjSX4dKrdFPdOmTZNn0cLCwsTRlbFW4WANM44u4JD77Qsnsx0qt6YcnPNz8/Q2epDemnLgvV6sdDm6L5QIHLeyhLTvUejsWCrunkEB/bNMxYbv0tq1a4Wnt7M4U7uANm3aZEkV+cpjd5qf0lusYnL6jidWKFDfcyJohbhMUW6PFmjLwxGFnDaEtfz5FcakbM7DD/Xi6ydwuTdHFy/qPCvN8TyLNJg7DR1AnkW5+VEGjoDgyivBLIvvf+aFnhVu+A5j8CclTR55sKSN0LesMS1aUqYxHlvUA9MctPQZM2YYa8Izi8NCG2f08ko4KmH4RanclAltEFdu6aM5HnTrrnFzJ8r09vaWgg8Klj0IPrTJboUfGsfECDAC+Y/A4fM5O6zkfyvsowY4lEWJw6O5MnnaRxeeSyv2G/mii7YhwDM4OFguLLTxzzPMwu95os91MwKMgF0hsHz5crtqz9+pMYZ+A8+7b6b11OfdMq6fEWAEGAFGgBHIJwT0ND8XF5c8VYOvdue1jDw1gDMzAoyARQjA8cAU8d+wKWQ43hABc+8ReO35XdITfoYd42dGgBH4eyLQt3vfv2fHuFc2ReCv/B6pwg//v1Je/48l5E9OTrYp+FwZI8AIWIeAtUcZrCuduQsKAn/194j3/ArKm8r9ZAQYAUaAEVARYOGnQsEBRoARYAQYgYKCAAu/gjLS3E9GgBFgBBgBFQEWfioUHGAEGAFGgBEoKAiw8CsoI839ZAQYAUaAEVARYOGnQsEBRoARYAQYgYKCAAu/gjLS3E9GgBFgBBgBFQEWfioUHGAEGAFGgBEoKAiw8CsoI839ZAQYAUaAEVARYOGnQsEBRoARYAQYgYKCAAu/gjLS3E9GgBFgBBgBFQEWfioUHGAEGAFGgBEoKAiw8CsoI839ZAQYAUaAEVARYOGnQsEBRoARYAQYgYKCAAu/gjLS3E9GgBFgBBgBFQEWfioUHGAEGAFGgBEoKAiw8CsoI839ZAQYAUaAEVARYOGnQsEBRoARYAQYgYKCAAu/gjLS3E9GgBFgBBgBFQEWfioUHGAEGAFGgBEoKAiw8CsoI839ZAQYAUaAEVARYOGnQsEBRoARYAQYgYKCAAu/gjLS3E9GgBFgBBgBFYH/AWWRNNvohp1NAAAAAElFTkSuQmCC;" parent="1" vertex="1">
                    <mxGeometry x="1240" y="1110" width="447" height="66" as="geometry"/>
                </mxCell>
                <mxCell id="64" value="" style="shape=image;verticalLabelPosition=bottom;labelBackgroundColor=default;verticalAlign=top;aspect=fixed;imageAspect=0;image=data:image/png,iVBORw0KGgoAAAANSUhEUgAAAb8AAABCCAYAAADHaNgBAAABXmlDQ1BJQ0MgUHJvZmlsZQAAKJF1kE0rRHEUh59hNMUUC2kWypTJaoiLUrPylmgW0zBl7O7cGeNl3Pl350p2FuxHZmMnNj4BGwsrW0pZSBILH0Amha5zDcZLzun0e/p1zul0oMavK5XzAkumbcXHhoLTyZmg755a2mihnYBuFNRgLBaVFj71Z5Qv8Lh63unuOolEJhbuNp8Wb0tt6YZk6G//j6hPZwqG6IuUZijLBk+3cGzFVi6vCTdbcpRwyeVshfddTlX46L1nKj4sfCbcZMzpaeEb4XDqm5/9xku5ZePjBvd6f8ZMTIq2SLUywihRySAJNPrpYUA8/pnpe58ZJo9iFYt5ssxhy/SgOIocGeFxTAy6CAtrdEv1ur/+/cOql9+FgUeoLVa91DYcbkDgsuqFdqBxHQ5OlW7pX5/1lL2F2V6twv4hqLt2nIcO8G3Ba9Fxnncd53VP9l/BsfkGgwdjz0rAZS8AAABiZVhJZk1NACoAAAAIAAIBEgADAAAAAQABAACHaQAEAAAAAQAAACYAAAAAAAOShgAHAAAAEgAAAFCgAgAEAAAAAQAAAb+gAwAEAAAAAQAAAEIAAAAAQVNDSUkAAABTY3JlZW5zaG90eV3reAAAAjxpVFh0WE1MOmNvbS5hZG9iZS54bXAAAAAAADx4OnhtcG1ldGEgeG1sbnM6eD0iYWRvYmU6bnM6bWV0YS8iIHg6eG1wdGs9IlhNUCBDb3JlIDYuMC4wIj4KICAgPHJkZjpSREYgeG1sbnM6cmRmPSJodHRwOi8vd3d3LnczLm9yZy8xOTk5LzAyLzIyLXJkZi1zeW50YXgtbnMjIj4KICAgICAgPHJkZjpEZXNjcmlwdGlvbiByZGY6YWJvdXQ9IiIKICAgICAgICAgICAgeG1sbnM6ZXhpZj0iaHR0cDovL25zLmFkb2JlLmNvbS9leGlmLzEuMC8iCiAgICAgICAgICAgIHhtbG5zOnRpZmY9Imh0dHA6Ly9ucy5hZG9iZS5jb20vdGlmZi8xLjAvIj4KICAgICAgICAgPGV4aWY6UGl4ZWxZRGltZW5zaW9uPjY2PC9leGlmOlBpeGVsWURpbWVuc2lvbj4KICAgICAgICAgPGV4aWY6VXNlckNvbW1lbnQ+U2NyZWVuc2hvdDwvZXhpZjpVc2VyQ29tbWVudD4KICAgICAgICAgPGV4aWY6UGl4ZWxYRGltZW5zaW9uPjQ0NzwvZXhpZjpQaXhlbFhEaW1lbnNpb24+CiAgICAgICAgIDx0aWZmOk9yaWVudGF0aW9uPjE8L3RpZmY6T3JpZW50YXRpb24+CiAgICAgIDwvcmRmOkRlc2NyaXB0aW9uPgogICA8L3JkZjpSREY+CjwveDp4bXBtZXRhPgqLOZWHAAAcv0lEQVR4Ae1dB3xUxdY/QHqAkEAIJaFFmiT0KohKDwiGRxEM1QeCIj7ATx6KIvBRLMjDh3QEpEoRRKoURYTQayihhBYIJAFCICGNJG/+s9ybu5vdzW5CltWc8+PunTtzpv3nZs6cM2cuhXx9fTPFRTExMZSamkq5paCgIAoNDaX4+PjcFsH5GAFGgBFgBBgBmyBQ2Ca1cCWMACPACDACjIAdIcDCz44Gg5vCCDACjAAjYBsEWPjZBmeuhRFgBBgBRsCOEGDhZ0eDwU1hBBgBRoARsA0CLPxsgzPXwggwAowAI2BHCLDws6PB4KYwAowAI8AI2AYBFn62wZlrYQQYAUaAEbAjBFj42dFgcFMYAUaAEWAEbIMACz/b4My1MAKMACPACNgRAiz87GgwuCmMACPACDACtkGAhZ9tcOZaGAFGgBFgBOwIARZ+djQY3BRGgBFgBBgB2yDAws82OHMtjAAjwAgwAnaEAAs/OxoMbgojwAgwAoyAbRBg4WcbnLkWRoARYAQYATtCgIWfHQ0GN4URYAQYAUbANgiw8LMNzlwLI8AIMAKMgB0hwMLPjgaDm8IIMAKMACNgGwRY+NkGZ66FEWAEGAFGwI4QcFDa4uTkRIUL500WogwXFxelSL4zAoyAHSLQu3dvs61atWqV2XROZASAQE7vEXjs+V1ShR8aysQIMAIFA4Fl65YZ7Wjf7n2NxnMkI2AMAVPvEXjt/V3SE37JycnG+mdxXGpqKuW1DIsrY0ZGgBHINQIpKSkm8/LfsEloOMEAAXPvEVjt+V3Km53TAIj8enRwcqZSlapTEUen/KqiwJbr4eFGFSuWNtt/pBcv7maW5++SWLp0CXJ2dvy7dCfHfhQuRHR8YQxNGvRQj9fZoQi5OmatjRFGnLXk51WcKpcqIS/vYubfIXeBu6tTVp3W1FWqqBsVd3U2mcVBbOmgbNFdSU7oXy7rMlmJSHD18JJzlTme/Erz8PGl4qXLq8V7+fmTb2BjeZWtUU+Nz4/A7hmxtPjjuPwoOt/KzN2blm/NMV5w/eCB9MrgT2j1R73oxslQ40x/g9iarYIp+WEcXT36h816M358CNWqVYHatfvMaJ0QjgsXfkDbth2j6dM3SB48GxMQmzYdpjVr/jRaTn5G1q5dmcqV86Lt249lq+a99zpRs2Y1aODAGfTkSXq2dG2En583LVr0L/rpp1CaO3erNsmisKMQEK+/3oiOH4+g69djLMrzvJlGvvmIypRMpx9/c9VrysyQduTp7kI9Zm+gIkJCLh3cmaIfJtL7y3fo8eX08FXP1wiCB3QpOo4++WmPDBv7mduvA129G0/jNuw1lmw2bnbfdnQqMoYmbzY+PwxrXZ9aVPWjqVsO0PHrd2hmSFvycneV/TNbsJWJbT+YQtVbdqSv21awMmfe2Qcs2EmPH9yjBf1ayMK6TlhIEICgjPQn9E2HKjKcHz9Hwp2oX/vHVMEnnW5EW79Iyo825VTmX0LzK1RIWa/l1J2/dnr7kV9Q6/cn2rQTOUObHfsKFbzJ29uDHMTq2fCyaeOfVvbPf7alUaOCjVZds6YflSnjKZy5svfDMENycgrFxSXQjRu5E1zFirkShG1wcDPDou32+d03EuVkdeZK/mi7fedvopD5v1BS2pMcMbgS+4AiYmyjPRRSdcAcm/WXZVj8Tlv6tktNir50Jt/7MGVpccrMJJo27EG+1/WsKrBbzc/R2ZX86jYzO3BuHiWpfEBDiok4R/F3Ik1iUvqFWlSiTAW6de4YJd7PmthQR3p6GmU8yfrDdHJ1p7TkJDGQGeRS1EOumHwDm9DNM4cpMz2dytasZ1T7VNty+SzFR9/UawvKeZKaTOminor1mlOUaEdqUqLK4+xejAoVEusQIYkKF3GQ9SIxPS2V0lKSVD5LAt7exalq1fL08OFjOncukjIyMrJl8/QsStWr+9KJExHZ0hCBxUZgYCVKTEymu3f1zWFKhqio+/T22zOUR727u9AYoGWlpKTpxRct6irj0jQToYeHOwUEVKDLl+9QtNAMtAT+1NQ0UVYG1atXRfTnBiUlpaosrq5OVKRIEXkhEvygTPFXiLZbQxDicXGJ9NZbX4t3IjtmSlkvvFCWSpXyoAsXbkpBiXjghT5D+IFcXBzVtiQnp2bTOKFh+vmVolOnruq1E97Wbm7O9PhxiizjxRcr0NGjl2SZhj/mcAMvygEOwMvHx5P8/cvQyZNXZNlKWX3aPSY3l0z6bnFRJSpX9yKi3ZUEJg5igQHNLVWjYT/B+yf+oS2mqLDAT/yjib/sE3ymuEhooKbrMcyFMmGmTRVjmW7kb8CQPz+eYYJ09ypNt8NPZCu+mHdZ8qkaKC09t84dp8yMLKtEocJFyNmtKKU8TiBHF1cq/2IDk9agkhWrUtGSPnTjRHaNF/NaqrgyxBxnjjD3YF5DXZGnD+rNh8hX2MGBnFzcKSXxkSymUsOWYh6N1Svy4eNCBO2veUAqOTlmUmpa9sUmTgM4iLKeoF3CP+R5k10Kv/pvDKDWwyZIYQCAEuPu6uGEl6PXN2vIN6CRGg/ht+z9zpQUf1+Nq93xLWo7fJIcPCXy1JaVtGPGGPk4YvMFunr4d1o3tr98DmjXnYI+mk6bp35AN8MO0dCVh/BXK9uR/iRNvKAZhP1HDPycXo1Ekk5A9pq+lrwr11CqoNir4bRctOVJqs6pYPiGMIqLukYlylYQf+SFZb6w7avp1+n/lnmQLoWfePIo40d4BmHFtvS9jjJsyc/SpaOobFkvlRUTzvff76TVq/eqcePG9aaXX64ln3VCQt/xoVq18vSf/wwmp6f7Iffu6V54tQALAj/8MEpO3q+/LsbwKUGYTp8+iLZsOUIzZmyUwgHPlSv7KCx09Wo0vf/+HPGHoVuMbNgwlqKi7sk+QcCgvTBtTp/+s8wzb977ev0FPwj5O3UaL8OW/FSq5EMLFgxXWY2ZPbt2bUaDBrVXcQHzqlV/CDPpTqpTpzJ9/fXbav42beoSLtCKFXtoyZJdMgxsv/xyoOh71nGgbduOqv1p2bIWjR37plgI3CYIWRAWEN99t1k16ULA54Qb8q1aNZoSEpKk4C1XriSiZDgo6HMZxk+LQN0EtOuY6b0yldlEIKRZLXqjblW5AAALxmjiL/vpzC39ydFEdhkNk6qyn3j+9j2jZk9r6nER5ueve7YiH7FPbW1bzLXTmrQ+MzeSss+G+WL16F5077puITN46T45F6jlCcz2fv8FHVo9R0bBbNp57CyKEQtpLNxBWATv/m4cYd4AOQnhOGD+DsI+HwhzTWGxELSW6nR6i9pgjhSLbhDMo9un/R+d3bVeLQrz8WtDRd3bfqSADj3VuSr5opgfVyxU+Y5ecKTGNVOpcY002heW3T9jypQpVK1aNbEAe0y9evVS8z2vgFA37IugBbUaNl5oSWm0Z94kCvt1DbmX0P3xKi1t0X+UFHwQKJsmDxOC6rAUGp3GfKuwyE3n9iOmSkFz4pel9MPQIDqydh45ubqpPIYBCFVDglaJ/EUcHCn+9g1ZhruXN2H1A/rHpCVS8F0O3UFrx/ShS/u3y+eOo/+jV5RnuUp0ad92KVhTExOodlBvuTkOpqXCVLZ8eBf5AifcvSPDeF4/LmtC1SvMxEN09AMh7HbQ4MEzacqUNfToUZKYsNsJE2VxmaNFixel4Lt/P4GmTl0rNUPtRAymCRNCyNGxiNzjmz9/O2HPzxiVLetJixeP0Luw9wbau/eM3BOsW7eKmvXNN1+W4R9/3Cvvkyb1lYIvNPQ8jRmzhPbvPyefR4/upuZBABP3vn3nZHsTE1MoKKih2qYxY36g4cPn0rVr0XLSRRjX0KGz9MrI6eHmzbv00UeLhFDZIFmxqDGkAQPaSKEKPuwfQqgpWjE0UtQ7duxSmQ19UtqiLDyg1U2b9k+hITrThg0H6LPPllNk5F3Zn5YtA/Sqg5aGfPPmbZfCdsiQDmq6pbghA5x3oKViwTF58mo6e/aGWg4CVf3Egk6s7e7cy/7e/3TsAm04flHyZ2Rk0s8nLtK6o+F6+VvVrEjB9apRzKPHNHPXURr1427642Kk1Y4kH6/bQ2PElSYsKxCehmRNPW5OjjSjdxuCc834jftUIbwn/IbsQ+R9nSUD/TPsj2G9eXn28vWXi2w5f4n5ovV7WQvBh8IyBGG3eHBb2jxlOCU9ekAtB31M0Aa15O1fUwpEzINYdL865FM1uf3IL6Xgu3X2qJxTUhIeqgJMZcohAK2x3Ygv6ElKMu2e/Tnt/O9YGQ4aPZ1gyTKkwKBedPfaRdr29Yd06MfZlJGUoMdyOkJnOm/yonmtzl62sexO86vTKUSuLLDCObJuvgQXar+ycYuIgHY9ZPwyITSgiofv2USjtl6mCnVfkvH4eVU4yIiCaM+CyXR8w2IZHxNxVk23NHDhz610UVz1uvST99Ni9dOoxxCCMLspzKblazWgJOGkcmDFf2WReCkq1mtBVZq00qsCL+fGiUNlHDTWup37Uhlh9oBzC1Z4IJg+sMK7HX5SPlv7g4kZhEkPgvDAgXBq376+cGipSHv2hFG3bs1l+sSJq8REeJ1+++2U0CgmqvthMKWVKlWcIAwUQYD9si5dmsh82p8iRWCiy9JgkAahCVq5cg917txYrO5aSlMb4urX9ydokXfuxEnBCCcbmGYhREAQivXq+VOTJtXls/KTkJBMaC8oIKCiLBdmXZgDoRVGRZFqygsP1zc3K2XkdIeJFibBe/e8JauihSv54MgCE+vt2/fp9Olr0pSsaHPggaaJur28isksWFwYtqVDh/qyDNSza5dufGfP3iKEen/q3r25XDAo9cEcunDhDvnYqVNDKl9eNxHBychS3JSyRo9eLMcaz3gHtFSuZAYlJhfSRqnhX89cUcMQRysOZP/b6dmopuQZveZ3eizM06BZu7M7HckEMz+KQEoXQtbYxGhpPe7OTvTtW22omIszfbr+D7qs2T+EMwwuhbT9U+Ke5X3f0m8IViZctdr8g0qUr6QWD8c9EMyi2CK5fGAnBbbvKeaShnIuUxgjTx2kvQunykdoaJ7ldYtLRGB+gZa2csQ/ZDosXyHf6hZvMsKCn9eGfCa5QpfNoKizunE7uXk5Ne45lGqL+g6unKlXStzNK7TknXZqnP/AgWoYgVOXdNpercq6d0EvUTxcvHhRLFw9KCYmaxwMeWz5bHfCD6sR0BVhjlQo6vxxPeHnXMyDUoU9XLFBg++B0MpKVniBoL1BiCgv25nta5RicnVPE3tzSj2wwack6laOMDvATg5yLe5JfWdt1i/fYAWrFbx3LukmIReR71nS4MHtqUePFtkmEOzxgaABYmUNwafQXbFHA2EJqlq1nLxfuHBL3vEDAWpM+N28ec/knh80IghfmANBTZvWEILRgXbuPCGf4YQCwvGJWbPelWHlx3DlHxFxW0miS5d07bL1sQvsUUK7wyJi+/YJ4o/3gdTeYB61lGrU0JmnoA0b9hnOQ1o6eDBLw8Leqq9vKZlsDW7IgHZrx1pbB8KPkgqRj2d2TcuQz9RzCbH4iRVanyL4TPHlNd7SeqqKvU0QnGtuxj3Ka7V5yn92xzo1P+YPB0dn9Rme6416vCMX+WqkCLh56sZZiYs4uEsJ0oOo6+TpW0V9dnJxo0d3s/424Ecg1XiVI+eAMkdqNUoll7c4WmZIF4Xlyhz5lk6XyXfuFzbKNn/+fMJlL2R3wg/7aoZkzBwJrc4sKcInJz5NOkyuhpRJYnJQzGCiTHVyFvmUtp7bvYF+mzNBLyucY7QE04JKStvUCMsDyspYbcfTrP7+Zalnz5eldrVo0Q46cuSS1JL69s3SQJVqlf0zXdYsHI05x1jiJWms9b/+epz69WtFMLUq3o+rV/8pWWFGA+3efYrmzNkiw8pPerr+ZKx1mlHar/Da8j5ixAJq3boudezYgOCIMnRoR+k0BPOyJaT0ecKElRQWdk0vS3Ky/koZDi8KacdZKcMS3JAfGqg5uhLlQL7eKeTqLBxjUrLeA3N5tGnyb0MbkU9hS+tJFkJv1aFzNLBFbfp3x6Y0QZg9nxcpC2ZZP17cp/NMaf9aUrNKuBdNfy76kq4e2SOtQC/1HSn8T/XHAItthbTvAeIsxUTJb+oOE/+sHvWzJSuLfG0CtpfMUd2qqTIZji9/BTIuop9jy+9euyBr92/SWm1FuRo65wElAmfh4JUJL0qFSpSrKPcJFa+p+zevyqTawk5tijDwyuoHPP5N25hiNRqveHGVqlxdOtrA2Ua5khPijeYxFwlh6uSWXQArefr06UMbN26UV9euXZVoeW/btp6843zajh0npCdis2Y6s5TCCG0Mgg/mQ4Vg5lRI0bIULQXxOCOXG/rpp/1yoQBTK0x12N+CAwYoPDxS3uHsEh//WO9SeCSDhT9paemyX4qTjoXZrGbbvfskffjh98KZZoJ0HmnUqJpeGYqjjpeXTtPWJipmUGBr2GetgNfmMQw/a9yUPZr61fSFr2G9pp7jhEct9taKCnNjThSflEKlnnrj5sRrmG5pPeHCWWbr6Qjae+EGBZT3pg4BWZqSYZmmngMDA4WD0hJ5+fhkOWOZ4rc2vlbbbjLL73Mn0hmhHcKZ74Vm7awthtKSHlPRUmXUfNL5T7OQVxNE4GHMbbkfaLi4j4u8Iv5uCktvUWXeUu5aD3htWebCgVV071FoWJaWq+UPCQmRuM6cqW9O1fLYMmx3mt/pravkxi68ihLEsYSS4pCm1tYNcLAfiJVS/7nbKXTFt1RHeHXCIQWemwrtmT+J/IVdHBvJ+DoM8tR4pbNwMvGUG8TgS34UT55lK9JLfUZI06VfnaZKdovu8LCCa7Bf7aYE767Da+bJDeNAeEQJ8+vP4wdbVI7ChGMYMG20/WAyXT+xX5hyr6v7geAx9+FxeA126/aScNV/VQiZZGmqVDwGlfJxAB2mSHh8/vDDbqHFNBTHBOB9KlamgjApQ0DiwPjHH/cQ+2n3qUOHBkp2vXvJksXonXeyHDGQCBPb/v3nJR+0l2vXYlRBu3lz1qoRQuL06asEB5mZM4fKg/EQAKgLfRw/foVeXTk9REbGyn5NntxPOurExyfSsWOX9bINHtxBmgG1kcuXi70q0U5ozTANly6tW0zBmadhw6ri00ypdObMdWkunjp1gDR1nj8fSY0bV5PnG6OjY7TFSeGOYxLIGxLyqjzojiMRsbEPCZrwu+92lNq5r683rV8fKs9KBgc3pT/+OEPr1uWspTxr3BZtdaNhXRPo3eAE2h/mpdcXSx7WHD5Pw1o3oG96taK1R8LlMYeOtf3pyNUoOhgRpVcEnrvWrya1svO370reaDFOHuJIhk8xd8mLw/TuwmGlmo+uLRHi3B+OKVhTDwqa/ftxqu1Xmt5+uTaFCa/TW1aYQL28vMTera5+7E9FR0fr9SOvD6e3raKG3QZR07eGE/wA6gpfAsWj05qyYYKEd3rf7zZJp8AW/T80mf3UluXy4H3v6esIe3owoV47tpd+n/f/VKXxa3KvEPPjud0/S0fCesEDaI3Yl8RWkjXUqn4KxTwoTNFxxnWqihUrSmyBqz2Q3Qk/nH/DEYD2o76k5v1GSowexUYJTyjdfhQiQpd9Kz7Z00Q6uHQY9ZXkwWYsjigodD8ygrZ+NVKU8xUFdnhTXkiD56ZCcB1uJzxCmwvvURDs5uWEc42iPSIuU0xmmU/NdBk4i/NUUCg86z97m3pMXSbzvTFuLrJIHnh5acmYSVEpQ+Hb/s1H1GXcPGkGgUNMtNgbhCeoJYQvihw6dEFOzHCigECDAGjQ4AXhoKETbocPXxSmxpPSfPevf3WRPHA6Uc6noZ5PP10mBNIQatWqjqwWDipwejFsP86RYX9RS9jPUoQf4n/55RAp9eDrL1qCtyPaCRMihDEIbYaQ0JLSdv04fdP4ggW/yv04CHa0AULC8KgDhIwhoU0Qfp9/3lvvyMRLL9UkXGgPvnyDIYfTyYgRb8giEB8bGy88Y1cZFimPPgwY0JrgHQqCgMVCA3lGjlwg+jyAmjevKS+kw9nm558PIqieLzQ0/crEpz+W4qZj1427Nr82DC/P/WKV/mq93Jk+9wgNy1vs2/ZoWIOGvKqzPMBpZfe5a9pqZHjzqctU1qMoBQVWIQjI9cLbEiZKaGfdRX6FKpQsTpO7vSIfPxNfeoE2Z0k9eMUzMFCC0AYccfjmzVY0/o0WNHjJNhlvyY9W24uNtfy4hlq2skWiRugHcNzhyqHfpNDpLuYNvFzXjv1JlRq8rG6jZDzdMjHcOtGWtEt4ZpZ/sT6VqV5HXpg3oa0Z81S+fnyfPLpQ45XX5cIaXvIL+7ck7RyJr2jhAsGfIk27TfO0YsP56mm0vHVtmURFXTPpk/mmBZuyqEhK0lmAtPmfR7iQr69vprjowYMHYuWaZWO2tjFBQUEUGhoqtId4a7Ma5cfBSt+AxhR75bz0pjTGBKeTcjXrC55z2c4CavmhTRUTJgJTZZUVZlWkKefytHktDePAvE+1QHkwHccjcED9eRBMf/CGhMZh6nNeOJAN5xZoNaZ4cCYNGiQ8KvOT4MGIuuCcERFxJ5t2lp91W1s2HE+gFcIbUzFxWlsG+OFVi+MM8H7N7WfQ8oLbQOGlt/Dp+Sx8jurg3Biau9GdJi4pToNCBonjK4ut6hZ2qsp5FpOfMYOjSX4dKrdFPdOmTZNn0cLCwsTRlbFW4WANM44u4JD77Qsnsx0qt6YcnPNz8/Q2epDemnLgvV6sdDm6L5QIHLeyhLTvUejsWCrunkEB/bNMxYbv0tq1a4Wnt7M4U7uANm3aZEkV+cpjd5qf0lusYnL6jidWKFDfcyJohbhMUW6PFmjLwxGFnDaEtfz5FcakbM7DD/Xi6ydwuTdHFy/qPCvN8TyLNJg7DR1AnkW5+VEGjoDgyivBLIvvf+aFnhVu+A5j8CclTR55sKSN0LesMS1aUqYxHlvUA9MctPQZM2YYa8Izi8NCG2f08ko4KmH4RanclAltEFdu6aM5HnTrrnFzJ8r09vaWgg8Klj0IPrTJboUfGsfECDAC+Y/A4fM5O6zkfyvsowY4lEWJw6O5MnnaRxeeSyv2G/mii7YhwDM4OFguLLTxzzPMwu95os91MwKMgF0hsHz5crtqz9+pMYZ+A8+7b6b11OfdMq6fEWAEGAFGgBHIJwT0ND8XF5c8VYOvdue1jDw1gDMzAoyARQjA8cAU8d+wKWQ43hABc+8ReO35XdITfoYd42dGgBH4eyLQt3vfv2fHuFc2ReCv/B6pwg//v1Je/48l5E9OTrYp+FwZI8AIWIeAtUcZrCuduQsKAn/194j3/ArKm8r9ZAQYAUaAEVARYOGnQsEBRoARYAQYgYKCAAu/gjLS3E9GgBFgBBgBFQEWfioUHGAEGAFGgBEoKAiw8CsoI839ZAQYAUaAEVARYOGnQsEBRoARYAQYgYKCAAu/gjLS3E9GgBFgBBgBFQEWfioUHGAEGAFGgBEoKAiw8CsoI839ZAQYAUaAEVARYOGnQsEBRoARYAQYgYKCAAu/gjLS3E9GgBFgBBgBFQEWfioUHGAEGAFGgBEoKAiw8CsoI839ZAQYAUaAEVARYOGnQsEBRoARYAQYgYKCAAu/gjLS3E9GgBFgBBgBFQEWfioUHGAEGAFGgBEoKAiw8CsoI839ZAQYAUaAEVARYOGnQsEBRoARYAQYgYKCAAu/gjLS3E9GgBFgBBgBFQEWfioUHGAEGAFGgBEoKAiw8CsoI839ZAQYAUaAEVARYOGnQsEBRoARYAQYgYKCAAu/gjLS3E9GgBFgBBgBFYH/AWWRNNvohp1NAAAAAElFTkSuQmCC;" parent="1" vertex="1">
                    <mxGeometry x="1240" y="1120" width="447" height="66" as="geometry"/>
                </mxCell>
                <mxCell id="72" value="&lt;font color=&quot;#000000&quot;&gt;When the browser loads a new HTML document,&lt;br&gt;&amp;nbsp;all existing JS variables and code is dumped&lt;br&gt;&lt;/font&gt;" style="rounded=0;whiteSpace=wrap;html=1;fontFamily=Helvetica;fontSize=12;fontColor=#FFFFFF;fillColor=#99CCFF;" parent="1" vertex="1">
                    <mxGeometry x="30" y="1320" width="309" height="60" as="geometry"/>
                </mxCell>
                <mxCell id="73" value="Standard Browser Behavior" style="text;html=1;strokeColor=none;fillColor=none;align=center;verticalAlign=middle;whiteSpace=wrap;rounded=0;fontSize=21;" parent="1" vertex="1">
                    <mxGeometry x="39.5" y="1280" width="290" height="30" as="geometry"/>
                </mxCell>
                <mxCell id="78" value="" style="edgeStyle=none;html=1;fontSize=21;" parent="1" source="74" target="76" edge="1">
                    <mxGeometry relative="1" as="geometry"/>
                </mxCell>
                <mxCell id="74" value="&lt;font color=&quot;#000000&quot;&gt;Doesn't really matter for a traditional HTML-focused app&lt;/font&gt;" style="rounded=0;whiteSpace=wrap;html=1;fontFamily=Helvetica;fontSize=12;fontColor=#FFFFFF;fillColor=#FFFF99;" parent="1" vertex="1">
                    <mxGeometry x="69.5" y="1400" width="230" height="50" as="geometry"/>
                </mxCell>
                <mxCell id="79" value="" style="edgeStyle=none;html=1;fontSize=21;" parent="1" source="75" target="77" edge="1">
                    <mxGeometry relative="1" as="geometry"/>
                </mxCell>
                <mxCell id="75" value="&lt;font color=&quot;#000000&quot;&gt;Kind of bad for a React app&lt;/font&gt;" style="rounded=0;whiteSpace=wrap;html=1;fontFamily=Helvetica;fontSize=12;fontColor=#FFFFFF;fillColor=#FFFF99;" parent="1" vertex="1">
                    <mxGeometry x="69.5" y="1470" width="230" height="50" as="geometry"/>
                </mxCell>
                <mxCell id="76" value="&lt;font color=&quot;#000000&quot;&gt;Load 1 request for simple html file&lt;/font&gt;" style="rounded=0;whiteSpace=wrap;html=1;fontFamily=Helvetica;fontSize=12;fontColor=#FFFFFF;fillColor=#FFFF99;" parent="1" vertex="1">
                    <mxGeometry x="339" y="1400" width="180" height="50" as="geometry"/>
                </mxCell>
                <mxCell id="77" value="&lt;font color=&quot;#000000&quot;&gt;Load 3 request for simple page. (index.html, bundle.js, call endpoint to load data)&lt;/font&gt;" style="rounded=0;whiteSpace=wrap;html=1;fontFamily=Helvetica;fontSize=12;fontColor=#FFFFFF;fillColor=#FFFF99;" parent="1" vertex="1">
                    <mxGeometry x="339" y="1470" width="180" height="50" as="geometry"/>
                </mxCell>
                <mxCell id="87" style="edgeStyle=none;html=1;entryX=0;entryY=0.5;entryDx=0;entryDy=0;fontSize=20;fontColor=#000000;" parent="1" source="81" target="84" edge="1">
                    <mxGeometry relative="1" as="geometry">
                        <Array as="points">
                            <mxPoint x="141" y="1780"/>
                        </Array>
                    </mxGeometry>
                </mxCell>
                <mxCell id="88" style="edgeStyle=none;html=1;entryX=0;entryY=0.75;entryDx=0;entryDy=0;fontSize=20;fontColor=#000000;" parent="1" source="81" target="86" edge="1">
                    <mxGeometry relative="1" as="geometry">
                        <Array as="points">
                            <mxPoint x="141" y="1840"/>
                        </Array>
                    </mxGeometry>
                </mxCell>
                <mxCell id="81" value="&lt;font color=&quot;#000000&quot;&gt;User types out address in&lt;/font&gt;" style="rounded=0;whiteSpace=wrap;html=1;fontFamily=Helvetica;fontSize=12;fontColor=#FFFFFF;fillColor=#99CCFF;" parent="1" vertex="1">
                    <mxGeometry x="41" y="1680" width="199" height="40" as="geometry"/>
                </mxCell>
                <mxCell id="82" value="How Navigation Works with React" style="text;html=1;strokeColor=none;fillColor=none;align=center;verticalAlign=middle;whiteSpace=wrap;rounded=0;fontSize=20;" parent="1" vertex="1">
                    <mxGeometry x="30" y="1635" width="330" height="30" as="geometry"/>
                </mxCell>
                <mxCell id="100" value="" style="edgeStyle=none;html=1;fontSize=20;fontColor=#000000;" parent="1" source="84" target="99" edge="1">
                    <mxGeometry relative="1" as="geometry"/>
                </mxCell>
                <mxCell id="84" value="&lt;font color=&quot;#000000&quot;&gt;always send back the index.html file&lt;/font&gt;" style="rounded=0;whiteSpace=wrap;html=1;fontFamily=Helvetica;fontSize=12;fontColor=#FFFFFF;fillColor=#FFFF99;" parent="1" vertex="1">
                    <mxGeometry x="199" y="1760" width="320" height="40" as="geometry"/>
                </mxCell>
                <mxCell id="102" value="" style="edgeStyle=none;html=1;fontSize=20;fontColor=#000000;" parent="1" source="86" target="101" edge="1">
                    <mxGeometry relative="1" as="geometry"/>
                </mxCell>
                <mxCell id="86" value="&lt;font color=&quot;#000000&quot;&gt;When app loads up, look at address bar and use it to decide what content to show&lt;/font&gt;" style="rounded=0;whiteSpace=wrap;html=1;fontFamily=Helvetica;fontSize=12;fontColor=#FFFFFF;fillColor=#FFFF99;" parent="1" vertex="1">
                    <mxGeometry x="199" y="1810" width="320" height="40" as="geometry"/>
                </mxCell>
                <mxCell id="89" style="edgeStyle=none;html=1;entryX=0;entryY=0.5;entryDx=0;entryDy=0;fontSize=20;fontColor=#000000;" parent="1" source="91" target="92" edge="1">
                    <mxGeometry relative="1" as="geometry">
                        <Array as="points">
                            <mxPoint x="141" y="1980"/>
                        </Array>
                    </mxGeometry>
                </mxCell>
                <mxCell id="90" style="edgeStyle=none;html=1;entryX=0;entryY=0.75;entryDx=0;entryDy=0;fontSize=20;fontColor=#000000;" parent="1" target="93" edge="1">
                    <mxGeometry relative="1" as="geometry">
                        <Array as="points">
                            <mxPoint x="141" y="2040"/>
                        </Array>
                        <mxPoint x="141" y="1920" as="sourcePoint"/>
                    </mxGeometry>
                </mxCell>
                <mxCell id="96" style="edgeStyle=none;html=1;entryX=0;entryY=0.5;entryDx=0;entryDy=0;fontSize=20;fontColor=#000000;" parent="1" source="91" target="94" edge="1">
                    <mxGeometry relative="1" as="geometry">
                        <Array as="points">
                            <mxPoint x="140" y="2080"/>
                        </Array>
                    </mxGeometry>
                </mxCell>
                <mxCell id="97" style="edgeStyle=none;html=1;entryX=0;entryY=0.5;entryDx=0;entryDy=0;fontSize=20;fontColor=#000000;" parent="1" source="91" target="95" edge="1">
                    <mxGeometry relative="1" as="geometry">
                        <Array as="points">
                            <mxPoint x="141" y="2130"/>
                        </Array>
                    </mxGeometry>
                </mxCell>
                <mxCell id="91" value="&lt;font color=&quot;#000000&quot;&gt;User clicks a link or&lt;br&gt;&amp;nbsp;presses 'back button'&lt;/font&gt;" style="rounded=0;whiteSpace=wrap;html=1;fontFamily=Helvetica;fontSize=12;fontColor=#FFFFFF;fillColor=#99CCFF;" parent="1" vertex="1">
                    <mxGeometry x="41" y="1880" width="199" height="40" as="geometry"/>
                </mxCell>
                <mxCell id="110" value="" style="edgeStyle=none;html=1;fontSize=20;fontColor=#000000;" parent="1" source="92" target="104" edge="1">
                    <mxGeometry relative="1" as="geometry"/>
                </mxCell>
                <mxCell id="92" value="&lt;font color=&quot;#000000&quot;&gt;Stop the browser's default page-switching behavior!&lt;/font&gt;" style="rounded=0;whiteSpace=wrap;html=1;fontFamily=Helvetica;fontSize=12;fontColor=#FFFFFF;fillColor=#FFFF99;" parent="1" vertex="1">
                    <mxGeometry x="199" y="1960" width="320" height="40" as="geometry"/>
                </mxCell>
                <mxCell id="93" value="&lt;font color=&quot;#000000&quot;&gt;Figure out where the user was trying to go&lt;/font&gt;" style="rounded=0;whiteSpace=wrap;html=1;fontFamily=Helvetica;fontSize=12;fontColor=#FFFFFF;fillColor=#FFFF99;" parent="1" vertex="1">
                    <mxGeometry x="199" y="2010" width="320" height="40" as="geometry"/>
                </mxCell>
                <mxCell id="109" style="edgeStyle=none;html=1;entryX=0;entryY=0.5;entryDx=0;entryDy=0;fontSize=20;fontColor=#000000;" parent="1" source="94" target="105" edge="1">
                    <mxGeometry relative="1" as="geometry"/>
                </mxCell>
                <mxCell id="94" value="&lt;font color=&quot;#000000&quot;&gt;Update content on the screen to trick the user into thinking they swapped pages&lt;/font&gt;" style="rounded=0;whiteSpace=wrap;html=1;fontFamily=Helvetica;fontSize=12;fontColor=#FFFFFF;fillColor=#FFFF99;" parent="1" vertex="1">
                    <mxGeometry x="199" y="2060" width="320" height="40" as="geometry"/>
                </mxCell>
                <mxCell id="107" value="" style="edgeStyle=none;html=1;fontSize=20;fontColor=#000000;" parent="1" source="95" target="106" edge="1">
                    <mxGeometry relative="1" as="geometry"/>
                </mxCell>
                <mxCell id="95" value="&lt;font color=&quot;#000000&quot;&gt;Update address bar to trick the user into thinking they swapped pages&lt;/font&gt;" style="rounded=0;whiteSpace=wrap;html=1;fontFamily=Helvetica;fontSize=12;fontColor=#FFFFFF;fillColor=#FFFF99;" parent="1" vertex="1">
                    <mxGeometry x="199" y="2110" width="320" height="40" as="geometry"/>
                </mxCell>
                <mxCell id="98" value="&lt;font color=&quot;#000000&quot;&gt;JS environment no longer being reset with navigation&lt;br&gt;Note: this only works if the state is not defined in the component&lt;br&gt;&lt;/font&gt;" style="rounded=0;whiteSpace=wrap;html=1;fontFamily=Helvetica;fontSize=12;fontColor=#FFFFFF;fillColor=#FFFF99;" parent="1" vertex="1">
                    <mxGeometry x="39.5" y="2180" width="270" height="90" as="geometry"/>
                </mxCell>
                <mxCell id="99" value="&lt;font color=&quot;#000000&quot;&gt;Create React App already does this&lt;/font&gt;" style="rounded=0;whiteSpace=wrap;html=1;fontFamily=Helvetica;fontSize=12;fontColor=#FFFFFF;fillColor=#CCFF99;" parent="1" vertex="1">
                    <mxGeometry x="570" y="1760" width="390" height="40" as="geometry"/>
                </mxCell>
                <mxCell id="112" value="" style="edgeStyle=none;html=1;fontSize=20;fontColor=#000000;" parent="1" source="101" target="111" edge="1">
                    <mxGeometry relative="1" as="geometry"/>
                </mxCell>
                <mxCell id="101" value="&lt;font color=&quot;#000000&quot;&gt;How do we look at the address bar?&lt;br&gt;What part of it do we care about?&lt;br&gt;&lt;/font&gt;" style="rounded=0;whiteSpace=wrap;html=1;fontFamily=Helvetica;fontSize=12;fontColor=#FFFFFF;fillColor=#FFB366;" parent="1" vertex="1">
                    <mxGeometry x="570" y="1810" width="390" height="40" as="geometry"/>
                </mxCell>
                <mxCell id="118" value="" style="edgeStyle=none;html=1;fontSize=20;fontColor=#000000;" parent="1" source="104" target="117" edge="1">
                    <mxGeometry relative="1" as="geometry">
                        <Array as="points">
                            <mxPoint x="765" y="1920"/>
                        </Array>
                    </mxGeometry>
                </mxCell>
                <mxCell id="120" style="edgeStyle=none;html=1;fontSize=20;fontColor=#000000;" parent="1" source="104" target="119" edge="1">
                    <mxGeometry relative="1" as="geometry"/>
                </mxCell>
                <mxCell id="104" value="&lt;font color=&quot;#000000&quot;&gt;How do we detect a user clicking a link? Clicking a back button?&lt;br&gt;&lt;/font&gt;" style="rounded=0;whiteSpace=wrap;html=1;fontFamily=Helvetica;fontSize=12;fontColor=#FFFFFF;fillColor=#FFB366;" parent="1" vertex="1">
                    <mxGeometry x="570" y="1960" width="390" height="40" as="geometry"/>
                </mxCell>
                <mxCell id="105" value="&lt;font color=&quot;#000000&quot;&gt;How do we update content on the screen?&lt;br&gt;&lt;/font&gt;" style="rounded=0;whiteSpace=wrap;html=1;fontFamily=Helvetica;fontSize=12;fontColor=#FFFFFF;fillColor=#FFB366;" parent="1" vertex="1">
                    <mxGeometry x="570" y="2060" width="390" height="40" as="geometry"/>
                </mxCell>
                <mxCell id="115" style="edgeStyle=none;html=1;entryX=0;entryY=0.75;entryDx=0;entryDy=0;fontSize=20;fontColor=#000000;" parent="1" source="106" target="113" edge="1">
                    <mxGeometry relative="1" as="geometry">
                        <Array as="points">
                            <mxPoint x="765" y="2210"/>
                        </Array>
                    </mxGeometry>
                </mxCell>
                <mxCell id="116" style="edgeStyle=none;html=1;entryX=0;entryY=0.5;entryDx=0;entryDy=0;fontSize=20;fontColor=#000000;" parent="1" source="106" target="114" edge="1">
                    <mxGeometry relative="1" as="geometry">
                        <Array as="points">
                            <mxPoint x="765" y="2270"/>
                        </Array>
                    </mxGeometry>
                </mxCell>
                <mxCell id="106" value="&lt;font color=&quot;#000000&quot;&gt;How do we update the address bar?&lt;br&gt;&lt;/font&gt;" style="rounded=0;whiteSpace=wrap;html=1;fontFamily=Helvetica;fontSize=12;fontColor=#FFFFFF;fillColor=#FFB366;" parent="1" vertex="1">
                    <mxGeometry x="570" y="2110" width="390" height="40" as="geometry"/>
                </mxCell>
                <mxCell id="111" value="&lt;font color=&quot;#000000&quot;&gt;We only care about the &quot;path&quot; part of the URL&lt;br&gt;&lt;/font&gt;" style="rounded=0;whiteSpace=wrap;html=1;fontFamily=Helvetica;fontSize=12;fontColor=#FFFFFF;fillColor=#FFB366;" parent="1" vertex="1">
                    <mxGeometry x="1010" y="1810" width="390" height="40" as="geometry"/>
                </mxCell>
                <mxCell id="113" value="&lt;font color=&quot;#000000&quot;&gt;window.location = &quot;&quot;&lt;br&gt;Causes a full page refresh&lt;br&gt;&lt;/font&gt;" style="rounded=0;whiteSpace=wrap;html=1;fontFamily=Helvetica;fontSize=12;fontColor=#FFFFFF;fillColor=#FFFF99;" parent="1" vertex="1">
                    <mxGeometry x="810" y="2180" width="320" height="40" as="geometry"/>
                </mxCell>
                <mxCell id="114" value="&lt;font color=&quot;#000000&quot;&gt;window.history.pushState...)&lt;br&gt;- Updates the address bar but doesn't cause a refresh&lt;br&gt;- Listen popstate event&lt;br&gt;&lt;/font&gt;" style="rounded=0;whiteSpace=wrap;html=1;fontFamily=Helvetica;fontSize=12;fontColor=#FFFFFF;fillColor=#FFFF99;" parent="1" vertex="1">
                    <mxGeometry x="810" y="2240" width="320" height="60" as="geometry"/>
                </mxCell>
                <mxCell id="117" value="&lt;font color=&quot;#000000&quot;&gt;event.preventDefault() when user click a link&lt;br&gt;&lt;/font&gt;" style="rounded=0;whiteSpace=wrap;html=1;fontFamily=Helvetica;fontSize=12;fontColor=#FFFFFF;fillColor=#FFFF99;" parent="1" vertex="1">
                    <mxGeometry x="1240" y="1900" width="320" height="40" as="geometry"/>
                </mxCell>
                <mxCell id="119" value="&lt;font color=&quot;#000000&quot;&gt;User Clicks forward or back?&lt;br&gt;Window emits a 'popstate' event if the user current url was added by 'pushState'&lt;br&gt;&lt;/font&gt;" style="rounded=0;whiteSpace=wrap;html=1;fontFamily=Helvetica;fontSize=12;fontColor=#FFFFFF;fillColor=#FFFF99;" parent="1" vertex="1">
                    <mxGeometry x="1240" y="1950" width="390" height="60" as="geometry"/>
                </mxCell>
                <mxCell id="121" value="&lt;font color=&quot;#000000&quot;&gt;Browser History&lt;/font&gt;" style="rounded=0;whiteSpace=wrap;html=1;fontFamily=Helvetica;fontSize=12;fontColor=#FFFFFF;fillColor=#99CCFF;" parent="1" vertex="1">
                    <mxGeometry x="1760" y="2010" width="180" height="40" as="geometry"/>
                </mxCell>
                <mxCell id="122" value="&lt;font color=&quot;#000000&quot;&gt;localhost:3000&lt;/font&gt;" style="rounded=0;whiteSpace=wrap;html=1;fontFamily=Helvetica;fontSize=12;fontColor=#FFFFFF;fillColor=#CC99FF;" parent="1" vertex="1">
                    <mxGeometry x="1760" y="1965" width="180" height="30" as="geometry"/>
                </mxCell>
                <mxCell id="123" value="&lt;font color=&quot;#000000&quot;&gt;localhost:3000/accordion&lt;/font&gt;" style="rounded=0;whiteSpace=wrap;html=1;fontFamily=Helvetica;fontSize=12;fontColor=#FFFFFF;fillColor=#CC99FF;" parent="1" vertex="1">
                    <mxGeometry x="1760" y="1920" width="180" height="30" as="geometry"/>
                </mxCell>
                <mxCell id="124" value="&lt;font color=&quot;#000000&quot;&gt;localhost:3000/a1&lt;/font&gt;" style="rounded=0;whiteSpace=wrap;html=1;fontFamily=Helvetica;fontSize=12;fontColor=#FFFFFF;fillColor=#FFFF99;" parent="1" vertex="1">
                    <mxGeometry x="1760" y="1870" width="180" height="30" as="geometry"/>
                </mxCell>
                <mxCell id="125" value="&lt;font color=&quot;#000000&quot;&gt;localhost:3000/a2&lt;/font&gt;" style="rounded=0;whiteSpace=wrap;html=1;fontFamily=Helvetica;fontSize=12;fontColor=#FFFFFF;fillColor=#FFFF99;" parent="1" vertex="1">
                    <mxGeometry x="1760" y="1820" width="180" height="30" as="geometry"/>
                </mxCell>
                <mxCell id="127" value="Added with pushState" style="text;html=1;strokeColor=none;fillColor=none;align=center;verticalAlign=middle;whiteSpace=wrap;rounded=0;" parent="1" vertex="1">
                    <mxGeometry x="1940" y="1817.5" width="90" height="35" as="geometry"/>
                </mxCell>
                <mxCell id="128" value="Added with pushState" style="text;html=1;strokeColor=none;fillColor=none;align=center;verticalAlign=middle;whiteSpace=wrap;rounded=0;" parent="1" vertex="1">
                    <mxGeometry x="1940" y="1867.5" width="90" height="35" as="geometry"/>
                </mxCell>
                <mxCell id="129" value="I typed url" style="text;html=1;strokeColor=none;fillColor=none;align=center;verticalAlign=middle;whiteSpace=wrap;rounded=0;" parent="1" vertex="1">
                    <mxGeometry x="1940" y="1920" width="90" height="35" as="geometry"/>
                </mxCell>
                <mxCell id="130" value="I typed url" style="text;html=1;strokeColor=none;fillColor=none;align=center;verticalAlign=middle;whiteSpace=wrap;rounded=0;" parent="1" vertex="1">
                    <mxGeometry x="1940" y="1965" width="90" height="35" as="geometry"/>
                </mxCell>
                <mxCell id="131" value="No full refresh" style="text;html=1;strokeColor=none;fillColor=none;align=center;verticalAlign=middle;whiteSpace=wrap;rounded=0;" parent="1" vertex="1">
                    <mxGeometry x="1640" y="1845" width="90" height="35" as="geometry"/>
                </mxCell>
                <mxCell id="133" value="" style="shape=flexArrow;endArrow=classic;html=1;fontSize=20;fontColor=#000000;" parent="1" edge="1">
                    <mxGeometry width="50" height="50" relative="1" as="geometry">
                        <mxPoint x="1740" y="1842.5" as="sourcePoint"/>
                        <mxPoint x="1740" y="1882.5" as="targetPoint"/>
                    </mxGeometry>
                </mxCell>
                <mxCell id="135" value="No full refresh" style="text;html=1;strokeColor=none;fillColor=none;align=center;verticalAlign=middle;whiteSpace=wrap;rounded=0;" parent="1" vertex="1">
                    <mxGeometry x="1644.41" y="1902.5" width="90" height="35" as="geometry"/>
                </mxCell>
                <mxCell id="136" value="" style="shape=flexArrow;endArrow=classic;html=1;fontSize=20;fontColor=#000000;" parent="1" edge="1">
                    <mxGeometry width="50" height="50" relative="1" as="geometry">
                        <mxPoint x="1744.41" y="1900" as="sourcePoint"/>
                        <mxPoint x="1744.41" y="1940" as="targetPoint"/>
                    </mxGeometry>
                </mxCell>
                <mxCell id="137" value="Full refresh" style="text;html=1;strokeColor=none;fillColor=none;align=center;verticalAlign=middle;whiteSpace=wrap;rounded=0;" parent="1" vertex="1">
                    <mxGeometry x="1650" y="1952.5" width="90" height="35" as="geometry"/>
                </mxCell>
                <mxCell id="138" value="" style="shape=flexArrow;endArrow=classic;html=1;fontSize=20;fontColor=#000000;" parent="1" edge="1">
                    <mxGeometry width="50" height="50" relative="1" as="geometry">
                        <mxPoint x="1744" y="1950" as="sourcePoint"/>
                        <mxPoint x="1744" y="1990" as="targetPoint"/>
                    </mxGeometry>
                </mxCell>
                <mxCell id="141" value="" style="edgeStyle=none;html=1;" edge="1" parent="1" source="139" target="140">
                    <mxGeometry relative="1" as="geometry"/>
                </mxCell>
                <mxCell id="139" value="&lt;font color=&quot;#000000&quot;&gt;inset-0&lt;/font&gt;" style="rounded=0;whiteSpace=wrap;html=1;fontFamily=Helvetica;fontSize=12;fontColor=#FFFFFF;fillColor=#99CCFF;" vertex="1" parent="1">
                    <mxGeometry x="41" y="2400" width="199" height="40" as="geometry"/>
                </mxCell>
                <mxCell id="140" value="&lt;font color=&quot;#000000&quot;&gt;top: 0, left:0; right:0, bottom:0&lt;/font&gt;" style="rounded=0;whiteSpace=wrap;html=1;fontFamily=Helvetica;fontSize=12;fontColor=#FFFFFF;fillColor=#99CCFF;" vertex="1" parent="1">
                    <mxGeometry x="320" y="2400" width="199" height="40" as="geometry"/>
                </mxCell>
                <mxCell id="144" value="" style="edgeStyle=none;html=1;" edge="1" parent="1" source="142" target="143">
                    <mxGeometry relative="1" as="geometry"/>
                </mxCell>
                <mxCell id="142" value="&lt;font color=&quot;#000000&quot;&gt;possition: 'absolute'&lt;/font&gt;" style="rounded=0;whiteSpace=wrap;html=1;fontFamily=Helvetica;fontSize=12;fontColor=#FFFFFF;fillColor=#99CCFF;" vertex="1" parent="1">
                    <mxGeometry x="41" y="2480" width="199" height="40" as="geometry"/>
                </mxCell>
                <mxCell id="143" value="&lt;font color=&quot;#000000&quot;&gt;Puts the element&lt;br&gt;- at the top left corner&lt;br&gt;- of the closest parent&lt;br&gt;- with a position other than 'static'&lt;br&gt;&lt;/font&gt;" style="rounded=0;whiteSpace=wrap;html=1;fontFamily=Helvetica;fontSize=12;fontColor=#FFFFFF;fillColor=#99CCFF;" vertex="1" parent="1">
                    <mxGeometry x="320" y="2460" width="199" height="80" as="geometry"/>
                </mxCell>
            </root>
        </mxGraphModel>
    </diagram>
</mxfile>